<svg width="116" height="148" viewBox="0 0 116 148" fill="none" xmlns="http://www.w3.org/2000/svg">
<path d="M116 0H0V148H116V0Z" fill="white"/>
<path fill-rule="evenodd" clip-rule="evenodd" d="M9 59.5C9 32.4761 30.9761 10.5 58 10.5C85.0239 10.5 107 32.4761 107 59.5V117H108V59.5C108 31.9239 85.5761 9.5 58 9.5C30.4239 9.5 8 31.9239 8 59.5V117H9V59.5Z" fill="#C48710"/>
<path d="M70.2999 69.4999C69.7999 69.5999 69.2 69.6999 68.7 69.8999C68.5 69.9999 68.1999 70.0999 67.9999 70.2999C67.7999 70.4999 67.4999 70.5999 67.3999 70.7999C67.1999 70.9999 66.9999 71.0999 66.7999 71.2999C66.5999 71.4999 66.3999 71.6999 66.2999 71.8999C66.1999 72.0999 65.9999 72.2999 65.8999 72.4999C65.7999 72.6999 65.5999 72.8999 65.4999 73.1999C65.3999 73.3999 65.2 73.5999 65.2 73.8999C65.1 74.0999 64.9999 74.3999 64.8999 74.5999C64.6999 75.0999 64.5999 75.5999 64.5999 76.1999C64.5999 76.6999 64.5999 77.2999 64.5999 77.7999C64.6999 78.2999 64.7999 78.8999 64.8999 79.3999L64.5999 79.1999C65.0999 78.9999 65.5999 78.7999 66.0999 78.5999C66.2999 78.4999 66.5999 78.3999 66.7999 78.2999C66.9999 78.1999 67.2999 78.0999 67.4999 77.8999C67.8999 77.5999 68.4 77.2999 68.7 76.9999C68.9 76.7999 69 76.5999 69.2 76.4999C69.3 76.2999 69.3999 76.0999 69.4999 75.8999C69.6999 75.4999 69.7999 74.9999 69.7999 74.4999C69.7999 73.9999 69.8999 73.3999 69.9999 72.8999C70.0999 72.2999 70.1999 71.7999 70.2999 71.2999C70.3999 70.9999 70.3999 70.7999 70.3999 70.4999C70.3999 70.3999 70.3999 70.1999 70.3999 70.0999C70.3999 69.5999 70.3999 69.4999 70.2999 69.4999ZM70.2999 69.3999C70.4999 69.3999 70.4999 69.6999 70.4999 69.7999C70.4999 69.8999 70.4999 70.0999 70.4999 70.1999C70.4999 70.4999 70.4999 70.6999 70.4999 70.9999C70.4999 71.4999 70.4999 72.0999 70.5999 72.5999C70.6999 73.0999 70.7 73.6999 70.7 74.2999C70.7 74.8999 70.5999 75.4999 70.3999 76.0999C70.2999 76.3999 70.0999 76.6999 69.9999 76.8999C69.7999 77.1999 69.5999 77.3999 69.3999 77.5999C68.8999 77.9999 68.3999 78.2999 67.8999 78.5999C67.5999 78.6999 67.3999 78.7999 67.0999 78.9999C66.7999 79.0999 66.5999 79.1999 66.2999 79.2999C65.7999 79.4999 65.2 79.5999 64.7 79.6999H64.3999V79.3999C64.2999 78.7999 64.3 78.2999 64.2 77.6999C64.2 77.0999 64.2 76.5999 64.2 75.9999C64.2 75.3999 64.1999 74.8999 64.2999 74.2999C64.2999 73.9999 64.3999 73.6999 64.4999 73.4999C64.4999 73.1999 64.7 72.8999 64.7 72.6999C64.8 72.3999 64.8999 72.1999 65.0999 71.8999C65.1999 71.5999 65.3999 71.3999 65.5999 71.1999C65.7999 70.9999 66 70.7999 66.2 70.5999C66.4 70.3999 66.6999 70.2999 66.8999 70.0999C67.0999 69.8999 67.4 69.8999 67.7 69.7999C68 69.6999 68.1999 69.5999 68.4999 69.5999C68.7999 69.5999 68.9999 69.4999 69.2999 69.4999L70.2999 69.3999Z" fill="#C48710" stroke="#C48710" stroke-width="0.5"/>
<path d="M51.6 76.9997C51.4 76.6997 51.3 76.3997 51.1 76.0997C50.9 75.7997 50.7 75.4997 50.6 75.1997C50.4 74.8997 50.2 74.5997 50.1 74.3997C49.9 74.0997 49.7 73.7997 49.5 73.5997C49.1 73.0997 48.7 72.4997 48.3 71.9997C48.1 71.6997 47.9 71.3997 47.7 71.1997C47.5 70.8997 47.3 70.6997 47 70.3997C46.8 70.1997 46.5 69.8997 46.3 69.6997C46 69.4997 45.8 69.2997 45.5 69.0997L44.6 68.4997L43.7 68.0997C43.4 67.8997 43.1 67.7997 42.8 67.6997C42.5 67.5997 42.2 67.3997 41.9 67.2997C41.6 67.1997 41.3 67.0997 41 66.9997C40.7 66.8997 40.4 66.7997 40 66.6997L39.8 66.5997L39.7 66.4997C39.3 65.6997 38.7 64.8997 38 64.1997C37.3 63.4997 36.6 62.8997 35.7 62.2997C35.7 62.2997 35.7 62.2997 35.7 62.1997C35.7 62.1997 35.7 62.1997 35.8 62.1997C36.8 62.3997 37.8 62.8997 38.6 63.5997C39.4 64.1997 40.2 64.9997 40.7 65.9997L40.4 65.6997C40.7 65.7997 41.1 65.8997 41.4 65.9997C41.7 66.0997 42.1 66.2997 42.4 66.3997C42.7 66.4997 43 66.6997 43.3 66.8997C43.6 67.0997 43.9 67.1997 44.2 67.3997C44.8 67.7997 45.3 68.1997 45.8 68.6997L47.4 69.9997C47.9 70.3997 48.5 70.8997 49 71.3997C49.5 71.8997 50 72.3997 50.3 72.9997C50.7 73.5997 51 74.1997 51.3 74.8997C51.4 75.1997 51.5 75.5997 51.6 75.8997C51.6 76.2997 51.7 76.5997 51.6 76.9997C51.7 76.9997 51.7 76.9997 51.6 76.9997Z" fill="#C48710"/>
<path d="M51.6 76.9997C51.4 76.6997 51.3 76.3997 51.1 76.0997C50.9 75.7997 50.7 75.4997 50.6 75.1997C50.4 74.8997 50.2 74.5997 50.1 74.3997C49.9 74.0997 49.7 73.7997 49.5 73.5997C49.1 73.0997 48.7 72.4997 48.3 71.9997C48.1 71.6997 47.9 71.3997 47.7 71.1997C47.5 70.8997 47.3 70.6997 47 70.3997C46.8 70.1997 46.5 69.8997 46.3 69.6997C46 69.4997 45.8 69.2997 45.5 69.0997L44.6 68.4997L43.7 68.0997C43.4 67.8997 43.1 67.7997 42.8 67.6997C42.5 67.5997 42.2 67.3997 41.9 67.2997C41.6 67.1997 41.3 67.0997 41 66.9997C40.7 66.8997 40.4 66.7997 40 66.6997L39.8 66.5997L39.7 66.4997C39.3 65.6997 38.7 64.8997 38 64.1997C37.3 63.4997 36.6 62.8997 35.7 62.2997C35.7 62.2997 35.7 62.2997 35.7 62.1997C35.7 62.1997 35.7 62.1997 35.8 62.1997C36.8 62.3997 37.8 62.8997 38.6 63.5997C39.4 64.1997 40.2 64.9997 40.7 65.9997L40.4 65.6997C40.7 65.7997 41.1 65.8997 41.4 65.9997C41.7 66.0997 42.1 66.2997 42.4 66.3997C42.7 66.4997 43 66.6997 43.3 66.8997C43.6 67.0997 43.9 67.1997 44.2 67.3997C44.8 67.7997 45.3 68.1997 45.8 68.6997L47.4 69.9997C47.9 70.3997 48.5 70.8997 49 71.3997C49.5 71.8997 50 72.3997 50.3 72.9997C50.7 73.5997 51 74.1997 51.3 74.8997C51.4 75.1997 51.5 75.5997 51.6 75.8997C51.6 76.2997 51.7 76.5997 51.6 76.9997ZM51.6 76.9997C51.7 76.9997 51.7 76.9997 51.6 76.9997Z" stroke="#C48710" stroke-width="0.5"/>
<path d="M40.3999 66.6998C40.3999 66.6998 39.9999 66.8998 39.2999 67.1998C38.5999 67.4998 37.4999 67.8998 36.1999 68.1998C35.4999 68.3998 34.7999 68.4998 33.9999 68.5998C33.1999 68.5998 32.2999 68.5998 31.4999 68.2998C30.5999 67.9998 29.8999 67.4998 29.2999 66.8998C28.5999 66.2998 27.9999 65.5998 27.5999 64.7998C27.1999 63.9998 26.8999 63.0998 26.6999 62.1998C26.5999 61.6998 26.5999 61.2998 26.5999 60.7998C26.5999 60.2998 26.5999 59.8998 26.9999 59.2998C27.0999 59.1998 27.2999 58.9998 27.4999 58.8998C27.7999 58.7998 27.9999 58.8998 28.1999 58.9998C28.2999 58.9998 28.3999 59.0998 28.4999 59.1998L28.7999 59.3998C29.1999 59.5998 29.4999 59.8998 29.7999 60.0998C30.3999 60.4998 30.9999 60.8998 31.4999 61.1998C32.0999 61.4998 32.5999 61.6998 33.0999 61.7998C33.5999 61.8998 34.0999 61.7998 34.4999 61.8998C34.8999 61.9998 35.1999 61.9 35.3999 62C35.5999 62.1 35.7775 62.1998 35.7775 62.1998C35.7775 62.1998 36.9614 62.3 36.3999 62.5C36.3999 62.5 36.1481 62.5998 36.0481 62.5998C36.0481 62.5998 35.4999 62.4998 35.2999 62.3998C35.0999 62.3998 34.7999 62.2998 34.3999 62.3998C33.9999 62.3998 33.5999 62.5998 32.9999 62.5998C32.3999 62.5998 31.7999 62.3998 31.0999 62.1998C30.3999 61.8998 29.7999 61.5998 29.0999 61.0998C28.7999 60.8998 28.3999 60.6998 28.0999 60.3998L27.8999 60.1998C27.7999 60.1998 27.7999 60.0998 27.6999 60.0998C27.6999 60.0998 27.6999 60.0998 27.7999 60.0998C27.6999 60.1998 27.5999 60.5998 27.4999 60.9998C27.4999 61.3998 27.4999 61.7998 27.4999 62.1998C27.5999 62.9998 27.6999 63.8998 27.9999 64.6998C28.2999 65.4998 28.7999 66.2998 29.3999 66.7998C29.9999 67.3998 30.7999 67.7998 31.5999 67.8998C32.3999 67.9998 33.1999 67.8998 33.8999 67.8998C34.5999 67.7998 35.2999 67.6998 35.9999 67.5998C36.6999 67.4998 37.1999 67.3998 37.7999 67.2998C38.2999 67.1998 38.7999 67.0998 39.1999 66.9998C39.8999 66.6998 40.3999 66.5998 40.3999 66.6998C40.3999 66.5998 40.3999 66.5998 40.3999 66.6998Z" fill="#C48710"/>
<path d="M40.3999 66.6998C40.3999 66.6998 39.9999 66.8998 39.2999 67.1998C38.5999 67.4998 37.4999 67.8998 36.1999 68.1998C35.4999 68.3998 34.7999 68.4998 33.9999 68.5998C33.1999 68.5998 32.2999 68.5998 31.4999 68.2998C30.5999 67.9998 29.8999 67.4998 29.2999 66.8998C28.5999 66.2998 27.9999 65.5998 27.5999 64.7998C27.1999 63.9998 26.8999 63.0998 26.6999 62.1998C26.5999 61.6998 26.5999 61.2998 26.5999 60.7998C26.5999 60.2998 26.5999 59.8998 26.9999 59.2998C27.0999 59.1998 27.2999 58.9998 27.4999 58.8998C27.7999 58.7998 27.9999 58.8998 28.1999 58.9998C28.2999 58.9998 28.3999 59.0998 28.4999 59.1998L28.7999 59.3998C29.1999 59.5998 29.4999 59.8998 29.7999 60.0998C30.3999 60.4998 30.9999 60.8998 31.4999 61.1998C32.0999 61.4998 32.5999 61.6998 33.0999 61.7998C33.5999 61.8998 34.0999 61.7998 34.4999 61.8998C34.8999 61.9998 35.1999 61.9 35.3999 62C35.5999 62.1 35.7775 62.1998 35.7775 62.1998C35.7775 62.1998 36.9614 62.3 36.3999 62.5C36.3999 62.5 36.1481 62.5998 36.0481 62.5998C36.0481 62.5998 35.4999 62.4998 35.2999 62.3998C35.0999 62.3998 34.7999 62.2998 34.3999 62.3998C33.9999 62.3998 33.5999 62.5998 32.9999 62.5998C32.3999 62.5998 31.7999 62.3998 31.0999 62.1998C30.3999 61.8998 29.7999 61.5998 29.0999 61.0998C28.7999 60.8998 28.3999 60.6998 28.0999 60.3998L27.8999 60.1998C27.7999 60.1998 27.7999 60.0998 27.6999 60.0998C27.6999 60.0998 27.6999 60.0998 27.7999 60.0998C27.6999 60.1998 27.5999 60.5998 27.4999 60.9998C27.4999 61.3998 27.4999 61.7998 27.4999 62.1998C27.5999 62.9998 27.6999 63.8998 27.9999 64.6998C28.2999 65.4998 28.7999 66.2998 29.3999 66.7998C29.9999 67.3998 30.7999 67.7998 31.5999 67.8998C32.3999 67.9998 33.1999 67.8998 33.8999 67.8998C34.5999 67.7998 35.2999 67.6998 35.9999 67.5998C36.6999 67.4998 37.1999 67.3998 37.7999 67.2998C38.2999 67.1998 38.7999 67.0998 39.1999 66.9998C39.8999 66.6998 40.3999 66.5998 40.3999 66.6998ZM40.3999 66.6998C40.3999 66.5998 40.3999 66.5998 40.3999 66.6998Z" stroke="#C48710" stroke-width="0.5"/>
<path d="M40.3999 66.6001C40.5999 67.2001 40.7999 67.8001 40.8999 68.4001C40.9999 68.7001 40.9999 69.0001 41.0999 69.3001L41.1999 70.2001V71.2001C41.1999 71.5001 41.1999 71.8001 41.0999 72.2001C41.0999 72.5001 40.9999 72.8001 40.9999 73.1001C40.8999 73.4001 40.8999 73.7001 40.7999 74.0001C40.5999 74.6001 40.2999 75.2001 39.9999 75.7001C39.8999 76.0001 39.6999 76.2001 39.4999 76.5001C39.2999 76.8001 39.0999 77.0001 38.9999 77.3001C38.7999 77.6001 38.5999 77.8001 38.3999 78.0001C38.1999 78.2001 37.9999 78.5001 37.7999 78.7001C37.3999 79.2001 36.8999 79.6001 36.3999 80.0001L36.1999 80.2001L36.0999 79.9001L35.0999 78.1001C34.8999 77.8001 34.7999 77.5001 34.5999 77.2001C34.3999 76.9001 34.2999 76.6001 34.1999 76.2001C34.0999 75.9001 33.8999 75.5001 33.7999 75.2001C33.6999 74.9001 33.5999 74.5001 33.5999 74.1001C33.5999 73.7001 33.4999 73.3001 33.5999 72.9001C33.5999 72.5001 33.7999 72.1001 33.8999 71.8001C34.0999 71.5001 34.2999 71.1001 34.4999 70.8001C34.6999 70.5001 34.9999 70.2001 35.1999 70.0001C35.6999 69.5001 36.2999 69.1001 36.7999 68.6001C37.9999 68.0001 39.1999 67.3001 40.3999 66.6001C40.3999 66.7001 40.3999 66.7001 40.3999 66.6001C39.8999 67.1001 39.3999 67.6001 38.8999 68.0001C38.3999 68.5001 37.8999 69.0001 37.3999 69.5001C36.8999 70.0001 36.3999 70.4001 35.9999 70.9001C35.7999 71.2001 35.5999 71.4001 35.3999 71.7001C35.1999 72.0001 35.0999 72.2001 34.8999 72.5001C34.7999 72.8001 34.6999 73.1001 34.5999 73.3001C34.4999 73.6001 34.4999 73.9001 34.4999 74.2001C34.4999 74.5001 34.5999 74.8001 34.5999 75.1001C34.6999 75.4001 34.7999 75.7001 34.8999 76.0001C34.9999 76.3001 35.0999 76.6001 35.1999 76.9001L35.5999 77.8001L36.3999 79.5002L35.9999 79.6001C36.4999 79.3001 36.9999 78.9001 37.3999 78.5001C37.7999 78.1001 38.1999 77.6001 38.4999 77.1001C38.7999 76.6001 39.0999 76.0001 39.2999 75.5001C39.4999 74.9001 39.6999 74.4001 39.7999 73.8001C39.8999 73.5001 39.9999 73.2001 39.9999 72.9001C39.9999 72.6001 40.0999 72.3001 40.1999 72.0001C40.2999 71.4001 40.2999 70.8001 40.3999 70.2001V69.3001C40.3999 69.0001 40.3999 68.7001 40.3999 68.4001C40.3999 68.1001 40.3999 67.8001 40.3999 67.5001C40.3999 67.3001 40.3999 67.0001 40.3999 66.6001Z" fill="#C48710"/>
<path d="M40.3999 66.6001C40.5999 67.2001 40.7999 67.8001 40.8999 68.4001C40.9999 68.7001 40.9999 69.0001 41.0999 69.3001L41.1999 70.2001V71.2001C41.1999 71.5001 41.1999 71.8001 41.0999 72.2001C41.0999 72.5001 40.9999 72.8001 40.9999 73.1001C40.8999 73.4001 40.8999 73.7001 40.7999 74.0001C40.5999 74.6001 40.2999 75.2001 39.9999 75.7001C39.8999 76.0001 39.6999 76.2001 39.4999 76.5001C39.2999 76.8001 39.0999 77.0001 38.9999 77.3001C38.7999 77.6001 38.5999 77.8001 38.3999 78.0001C38.1999 78.2001 37.9999 78.5001 37.7999 78.7001C37.3999 79.2001 36.8999 79.6001 36.3999 80.0001L36.1999 80.2001L36.0999 79.9001L35.0999 78.1001C34.8999 77.8001 34.7999 77.5001 34.5999 77.2001C34.3999 76.9001 34.2999 76.6001 34.1999 76.2001C34.0999 75.9001 33.8999 75.5001 33.7999 75.2001C33.6999 74.9001 33.5999 74.5001 33.5999 74.1001C33.5999 73.7001 33.4999 73.3001 33.5999 72.9001C33.5999 72.5001 33.7999 72.1001 33.8999 71.8001C34.0999 71.5001 34.2999 71.1001 34.4999 70.8001C34.6999 70.5001 34.9999 70.2001 35.1999 70.0001C35.6999 69.5001 36.2999 69.1001 36.7999 68.6001C37.9999 68.0001 39.1999 67.3001 40.3999 66.6001ZM40.3999 66.6001C40.3999 66.7001 40.3999 66.7001 40.3999 66.6001ZM40.3999 66.6001C39.8999 67.1001 39.3999 67.6001 38.8999 68.0001C38.3999 68.5001 37.8999 69.0001 37.3999 69.5001C36.8999 70.0001 36.3999 70.4001 35.9999 70.9001C35.7999 71.2001 35.5999 71.4001 35.3999 71.7001C35.1999 72.0001 35.0999 72.2001 34.8999 72.5001C34.7999 72.8001 34.6999 73.1001 34.5999 73.3001C34.4999 73.6001 34.4999 73.9001 34.4999 74.2001C34.4999 74.5001 34.5999 74.8001 34.5999 75.1001C34.6999 75.4001 34.7999 75.7001 34.8999 76.0001C34.9999 76.3001 35.0999 76.6001 35.1999 76.9001L35.5999 77.8001L36.3999 79.5002L35.9999 79.6001C36.4999 79.3001 36.9999 78.9001 37.3999 78.5001C37.7999 78.1001 38.1999 77.6001 38.4999 77.1001C38.7999 76.6001 39.0999 76.0001 39.2999 75.5001C39.4999 74.9001 39.6999 74.4001 39.7999 73.8001C39.8999 73.5001 39.9999 73.2001 39.9999 72.9001C39.9999 72.6001 40.0999 72.3001 40.1999 72.0001C40.2999 71.4001 40.2999 70.8001 40.3999 70.2001V69.3001C40.3999 69.0001 40.3999 68.7001 40.3999 68.4001C40.3999 68.1001 40.3999 67.8001 40.3999 67.5001C40.3999 67.3001 40.3999 67.0001 40.3999 66.6001Z" stroke="#C48710" stroke-width="0.3"/>
<path d="M35.5998 62.2999C34.8998 61.5999 34.2998 60.6999 33.9998 59.5999C33.8998 59.0999 33.8998 58.4999 33.9998 57.8999C34.0998 57.5999 34.0998 57.3999 34.1998 57.0999C34.2998 56.7999 34.3998 56.5999 34.5998 56.2999C34.6998 56.0999 34.8998 55.8999 35.0998 55.5999C35.2998 55.3999 35.4998 55.1999 35.6998 55.0999C36.0998 54.7999 36.5998 54.4999 36.9998 54.2999C37.3998 53.9999 37.7998 53.6999 38.0998 53.3999C38.2998 53.1999 38.3998 52.9999 38.4998 52.7999C38.5998 52.5999 38.6998 52.2999 38.6998 52.0999C38.6998 51.9999 38.6998 51.7999 38.7998 51.5999C38.8998 51.3999 39.0998 51.3999 39.1998 51.3999C39.2998 51.3999 39.3998 51.4999 39.4998 51.4999C39.6998 51.5999 39.7998 51.6999 39.8998 51.7999C39.9998 51.8999 40.0998 51.9999 40.1998 52.1999C40.3998 52.4999 40.4998 52.7999 40.6998 53.0999C40.7998 53.3999 40.8998 53.6999 40.9998 53.9999C41.1998 54.5999 41.2998 55.2999 41.3998 55.8999C41.3998 56.1999 41.3998 56.5999 41.3998 56.8999C41.3998 57.1999 41.2998 57.5999 41.2998 57.8999C41.1998 58.1999 41.0998 58.5999 40.9998 58.8999C40.8998 59.1999 40.6998 59.4999 40.5998 59.7999C40.3998 60.0999 40.1998 60.2999 39.9998 60.5999C39.7998 60.7999 39.4998 60.9999 39.1998 61.2999C38.8998 61.4999 38.5998 61.5999 38.2998 61.7999C37.9998 61.9999 37.6998 61.9999 37.3998 62.0999L36.8998 62.1999L36.3998 62.2999C36.2998 62.1999 35.9998 62.2999 35.5998 62.2999ZM35.6998 62.1999L36.4998 61.8999C36.7998 61.7999 37.0998 61.6999 37.2998 61.4999C37.5998 61.3999 37.8998 61.2999 38.0998 61.0999C38.2998 60.8999 38.5998 60.7999 38.7998 60.5999L39.3998 59.9999L39.7998 59.2999C39.8998 58.9999 39.9998 58.7999 40.0998 58.4999C40.1998 58.1999 40.2998 57.9999 40.2998 57.6999C40.2998 57.3999 40.3998 57.0999 40.3998 56.8999C40.3998 56.5999 40.4998 56.2999 40.3998 55.9999C40.3998 55.3999 40.2998 54.7999 40.1998 54.2999C40.1998 53.9999 40.0998 53.6999 39.9998 53.3999C39.8998 53.0999 39.7998 52.7999 39.6998 52.5999C39.6998 52.4999 39.5998 52.2999 39.4998 52.1999C39.4998 52.0999 39.2998 51.9999 39.1998 51.8999C39.0998 51.8999 39.0998 51.7999 39.0998 51.7999C39.0998 51.7999 38.9998 51.9999 38.9998 52.1999C38.7998 52.6999 38.5998 53.1999 38.2998 53.5999C37.9998 53.9999 37.5998 54.3999 37.1998 54.6999C36.7998 54.9999 36.3998 55.3999 36.0998 55.6999C35.8998 55.8999 35.7998 56.0999 35.6998 56.1999C35.5998 56.3999 35.4998 56.5999 35.2998 56.7999C35.1998 56.9999 35.0998 57.1999 34.9998 57.3999C34.8998 57.5999 34.7998 57.7999 34.7998 58.0999C34.6998 58.4999 34.6998 58.9999 34.6998 59.4999C34.8998 60.2999 35.1998 61.2999 35.6998 62.1999Z" fill="#C48710" stroke="#C48710" stroke-width="0.5"/>
<path d="M69.7999 46.9003C69.7999 46.9003 69.7999 46.4003 69.6999 45.4003C69.5999 44.5003 69.5999 43.1003 69.2999 41.3003C69.1999 40.4003 68.9999 39.5003 68.5999 38.5003C68.1999 37.6003 67.4999 36.6003 66.3999 36.5003C65.2999 36.3003 64.0999 36.8003 62.9999 37.6003C62.3999 38.0003 61.8999 38.4003 61.5999 39.0003C61.2999 39.5003 61.1999 40.2003 61.4999 40.7003C61.7999 41.3003 62.3999 41.7003 62.9999 42.0003C63.6999 42.3003 64.3999 42.5003 65.1999 42.8003C66.7999 43.4003 68.2999 44.2003 69.7999 45.1003C70.5999 45.5003 71.2999 46.0003 72.0999 46.4003L72.1999 46.5003H72.2999H72.3999L72.6999 46.6003C72.8999 46.7003 73.0999 46.7003 73.2999 46.8003C73.6999 46.9003 74.0999 46.9003 74.5999 46.9003C75.4999 46.9003 76.3999 46.8003 77.1999 46.4003C77.9999 46.0003 78.6999 45.4003 78.9999 44.6003C79.2999 43.8003 79.1999 42.8003 79.2999 41.8003C79.2999 40.8003 79.3999 39.9003 79.3999 38.9003C79.3999 37.9003 79.3999 36.9003 79.3999 36.0003C79.3999 35.5003 79.2999 35.0003 79.0999 34.6003C78.8999 34.2003 78.5999 33.8003 78.1999 33.5003C77.4999 32.8003 76.7999 32.1003 76.0999 31.4003C75.3999 30.6003 74.7999 29.8003 74.3999 28.9003C74.1999 28.5003 73.8999 28.0003 73.5999 27.6003C73.2999 27.2003 72.9999 26.9003 72.5999 26.8003C72.1999 26.8003 71.6999 27.0003 71.2999 27.2003L69.9999 27.9003C68.0999 28.8003 66.1999 29.3003 64.1999 29.8003C63.1999 30.0003 62.1999 30.2003 61.1999 30.4003L59.3999 30.8003L58.6999 30.9003C58.5999 30.9003 58.1999 31.0003 58.0999 31.1003C57.7999 31.3003 57.4999 31.6003 57.1999 31.9003C56.8999 32.3003 56.6999 32.7003 56.4999 33.1003C56.0999 33.9003 55.8999 34.9003 55.7999 35.8003C55.6999 36.7003 55.6999 37.7003 55.7999 38.6003C55.8999 39.5003 56.1999 40.4003 56.6999 41.0003C56.8999 41.3003 57.2999 41.7003 57.5999 42.0003L58.5999 43.0003C59.2999 43.6003 59.8999 44.2003 60.5999 44.7003C61.2999 45.1003 62.0999 45.4003 62.8999 45.3003C63.2999 45.3003 63.7999 45.2003 64.2999 45.2003C64.7999 45.2003 65.1999 45.2003 65.6999 45.2003C67.4999 45.3003 69.1999 45.6003 70.7999 46.3003C71.5999 46.6003 72.2999 47.0003 72.9999 47.4003C73.3999 47.6003 73.6999 47.9003 73.9999 48.1003C74.2999 48.3003 74.5999 48.6003 74.8999 48.7003C76.0999 49.5003 77.4999 49.7003 78.7999 49.6003C79.4999 49.6003 80.0999 49.4003 80.6999 49.3003C80.9999 49.2003 81.2999 49.2003 81.6999 49.1003C81.7999 49.1003 81.8999 49.1003 81.9999 49.1003H82.0999H82.1999C82.2999 49.1003 82.2999 49.1003 82.3999 49.0003C82.3999 49.0003 82.4999 49.0003 82.4999 48.9003C82.8999 48.6003 83.1999 48.1003 83.4999 47.6003C83.6999 47.1003 83.8999 46.6003 84.0999 46.1003C84.1999 45.6003 84.3999 45.1003 84.3999 44.7003C84.3999 44.3003 84.1999 43.9003 83.9999 43.5003C83.0999 42.0003 81.8999 41.3003 80.9999 40.9003C80.5999 40.7003 80.1999 40.6003 79.9999 40.5003C79.4999 40.6003 79.3999 40.5003 79.3999 40.5003V40.4003C79.3999 40.4003 79.4999 40.4003 79.7999 40.5003C79.9999 40.6003 80.3999 40.7003 80.7999 40.9003C81.6999 41.3003 82.9999 42.0003 83.9999 43.5003C84.0999 43.7003 84.1999 43.9003 84.2999 44.1003C84.3999 44.2003 84.3999 44.3003 84.3999 44.5003C84.3999 44.6003 84.3999 44.8003 84.3999 44.9003C84.3999 45.4003 84.2999 45.9003 84.0999 46.5003C83.9999 47.0003 83.7999 47.6003 83.4999 48.1003C83.1999 48.6003 82.9999 49.2003 82.3999 49.7003C82.2999 49.8003 81.9999 50.0003 81.8999 50.0003H81.7999H81.6999H81.5999H81.3999C81.0999 50.1003 80.7999 50.1003 80.4999 50.2003C79.8999 50.4003 79.1999 50.5003 78.4999 50.6003C77.0999 50.7003 75.4999 50.5003 74.0999 49.6003C73.6999 49.4003 73.4999 49.2003 73.0999 48.9003C72.7999 48.7003 72.4999 48.5003 72.1999 48.3003C71.5999 47.9003 70.8999 47.6003 70.0999 47.3003C68.5999 46.7003 66.9999 46.4003 65.2999 46.3003C64.8999 46.3003 64.4999 46.3003 63.9999 46.3003C63.5999 46.3003 63.1999 46.4003 62.6999 46.4003C61.6999 46.5003 60.5999 46.2003 59.7999 45.7003C58.8999 45.2003 58.1999 44.5003 57.5999 43.9003C57.2999 43.6003 56.8999 43.2003 56.5999 42.9003C56.2999 42.5003 55.9999 42.3003 55.5999 41.8003C54.9999 40.9003 54.6999 39.9003 54.5999 38.9003C54.4999 37.9003 54.4999 36.9003 54.5999 35.9003C54.6999 34.9003 54.9999 33.9003 55.3999 32.9003C55.8999 32.0003 56.3999 31.0003 57.5999 30.4003C57.8999 30.3003 57.9999 30.3003 58.3999 30.2003L59.0999 30.1003L60.5999 29.9003C61.5999 29.7003 62.5999 29.6003 63.4999 29.3003C65.4999 28.9003 67.3999 28.4003 69.1999 27.6003L70.5999 26.9003C71.0999 26.7003 71.5999 26.4003 72.1999 26.5003C72.7999 26.6003 73.1999 27.1003 73.4999 27.5003C73.7999 27.9003 73.9999 28.4003 74.2999 28.8003C75.1999 30.6003 76.5999 32.0003 78.0999 33.4003C78.3999 33.8003 78.7999 34.1003 78.9999 34.6003C79.1999 35.1003 79.2999 35.6003 79.3999 36.1003C79.4999 37.1003 79.4999 38.1003 79.4999 39.1003C79.4999 40.1003 79.4999 41.0003 79.4999 42.0003C79.4999 42.5003 79.4999 43.0003 79.4999 43.4003C79.4999 43.6003 79.4999 43.9003 79.4999 44.1003C79.4999 44.4003 79.3999 44.6003 79.2999 44.8003C78.9999 45.8003 78.1999 46.6003 77.2999 47.0003C76.3999 47.4003 75.3999 47.6003 74.4999 47.6003C73.9999 47.6003 73.4999 47.6003 73.0999 47.5003C72.8999 47.5003 72.5999 47.4003 72.3999 47.3003L72.0999 47.2003H71.9999H71.8999L71.6999 47.1003C70.8999 46.7003 70.0999 46.3003 69.2999 45.8003C67.7999 45.0003 66.2999 44.2003 64.7999 43.6003C63.3999 43.0003 61.4999 42.6003 60.5999 41.0003C60.0999 40.2003 60.2999 39.1003 60.7999 38.5003C61.1999 37.8003 61.8999 37.3003 62.3999 36.9003C63.5999 36.1003 64.9999 35.5003 66.2999 35.8003C67.6999 36.1003 68.4999 37.3003 68.8999 38.3003C69.2999 39.3003 69.3999 40.3003 69.4999 41.2003C69.6999 43.0003 69.6999 44.4003 69.6999 45.3003C69.8999 46.4003 69.8999 46.9003 69.7999 46.9003Z" fill="#C48710"/>
<path d="M83.9999 43.5003C84.1999 43.9003 84.3999 44.3003 84.3999 44.7003C84.3999 45.1003 84.1999 45.6003 84.0999 46.1003C83.8999 46.6003 83.6999 47.1003 83.4999 47.6003C83.1999 48.1003 82.8999 48.6003 82.4999 48.9003C82.4999 49.0003 82.3999 49.0003 82.3999 49.0003C82.2999 49.1003 82.2999 49.1003 82.1999 49.1003H82.0999H81.9999C81.8999 49.1003 81.7999 49.1003 81.6999 49.1003C81.2999 49.2003 80.9999 49.2003 80.6999 49.3003C80.0999 49.4003 79.4999 49.6003 78.7999 49.6003C77.4999 49.7003 76.0999 49.5003 74.8999 48.7003C74.5999 48.6003 74.2999 48.3003 73.9999 48.1003C73.6999 47.9003 73.3999 47.6003 72.9999 47.4003C72.2999 47.0003 71.5999 46.6003 70.7999 46.3003C69.1999 45.6003 67.4999 45.3003 65.6999 45.2003C65.1999 45.2003 64.7999 45.2003 64.2999 45.2003C63.7999 45.2003 63.2999 45.3003 62.8999 45.3003C62.0999 45.4003 61.2999 45.1003 60.5999 44.7003C59.8999 44.2003 59.2999 43.6003 58.5999 43.0003L57.5999 42.0003C57.2999 41.7003 56.8999 41.3003 56.6999 41.0003C56.1999 40.4003 55.8999 39.5003 55.7999 38.6003C55.6999 37.7003 55.6999 36.7003 55.7999 35.8003C55.8999 34.9003 56.0999 33.9003 56.4999 33.1003C56.6999 32.7003 56.8999 32.3003 57.1999 31.9003C57.4999 31.6003 57.7999 31.3003 58.0999 31.1003C58.1999 31.0003 58.5999 30.9003 58.6999 30.9003L59.3999 30.8003L61.1999 30.4003C62.1999 30.2003 63.1999 30.0003 64.1999 29.8003C66.1999 29.3003 68.0999 28.8003 69.9999 27.9003L71.2999 27.2003C71.6999 27.0003 72.1999 26.8003 72.5999 26.8003C72.9999 26.9003 73.2999 27.2003 73.5999 27.6003C73.8999 28.0003 74.1999 28.5003 74.3999 28.9003C74.7999 29.8003 75.3999 30.6003 76.0999 31.4003C76.7999 32.1003 77.4999 32.8003 78.1999 33.5003C78.5999 33.8003 78.8999 34.2003 79.0999 34.6003C79.2999 35.0003 79.3999 35.5003 79.3999 36.0003C79.3999 36.9003 79.3999 37.9003 79.3999 38.9003C79.3999 39.9003 79.2999 40.8003 79.2999 41.8003C79.1999 42.8003 79.2999 43.8003 78.9999 44.6003C78.6999 45.4003 77.9999 46.0003 77.1999 46.4003C76.3999 46.8003 75.4999 46.9003 74.5999 46.9003C74.0999 46.9003 73.6999 46.9003 73.2999 46.8003C73.0999 46.7003 72.8999 46.7003 72.6999 46.6003L72.3999 46.5003H72.2999H72.1999L72.0999 46.4003C71.2999 46.0003 70.5999 45.5003 69.7999 45.1003C68.2999 44.2003 66.7999 43.4003 65.1999 42.8003C64.3999 42.5003 63.6999 42.3003 62.9999 42.0003C62.3999 41.7003 61.7999 41.3003 61.4999 40.7003C61.1999 40.2003 61.2999 39.5003 61.5999 39.0003C61.8999 38.4003 62.3999 38.0003 62.9999 37.6003C64.0999 36.8003 65.2999 36.3003 66.3999 36.5003C67.4999 36.6003 68.1999 37.6003 68.5999 38.5003C68.9999 39.5003 69.1999 40.4003 69.2999 41.3003C69.5999 43.1003 69.5999 44.5003 69.6999 45.4003C69.7999 46.4003 69.7999 46.9003 69.7999 46.9003C69.8999 46.9003 69.8999 46.4003 69.6999 45.3003C69.6999 44.4003 69.6999 43.0003 69.4999 41.2003C69.3999 40.3003 69.2999 39.3003 68.8999 38.3003C68.4999 37.3003 67.6999 36.1003 66.2999 35.8003C64.9999 35.5003 63.5999 36.1003 62.3999 36.9003C61.8999 37.3003 61.1999 37.8003 60.7999 38.5003C60.2999 39.1003 60.0999 40.2003 60.5999 41.0003C61.4999 42.6003 63.3999 43.0003 64.7999 43.6003C66.2999 44.2003 67.7999 45.0003 69.2999 45.8003C70.0999 46.3003 70.8999 46.7003 71.6999 47.1003L71.8999 47.2003H71.9999H72.0999L72.3999 47.3003C72.5999 47.4003 72.8999 47.5003 73.0999 47.5003C73.4999 47.6003 73.9999 47.6003 74.4999 47.6003C75.3999 47.6003 76.3999 47.4003 77.2999 47.0003C78.1999 46.6003 78.9999 45.8003 79.2999 44.8003C79.3999 44.6003 79.4999 44.4003 79.4999 44.1003C79.4999 43.9003 79.4999 43.6003 79.4999 43.4003C79.4999 43.0003 79.4999 42.5003 79.4999 42.0003C79.4999 41.0003 79.4999 40.1003 79.4999 39.1003C79.4999 38.1003 79.4999 37.1003 79.3999 36.1003C79.2999 35.6003 79.1999 35.1003 78.9999 34.6003C78.7999 34.1003 78.3999 33.8003 78.0999 33.4003C76.5999 32.0003 75.1999 30.6003 74.2999 28.8003C73.9999 28.4003 73.7999 27.9003 73.4999 27.5003C73.1999 27.1003 72.7999 26.6003 72.1999 26.5003C71.5999 26.4003 71.0999 26.7003 70.5999 26.9003L69.1999 27.6003C67.3999 28.4003 65.4999 28.9003 63.4999 29.3003C62.5999 29.6003 61.5999 29.7003 60.5999 29.9003L59.0999 30.1003L58.3999 30.2003C57.9999 30.3003 57.8999 30.3003 57.5999 30.4003C56.3999 31.0003 55.8999 32.0003 55.3999 32.9003C54.9999 33.9003 54.6999 34.9003 54.5999 35.9003C54.4999 36.9003 54.4999 37.9003 54.5999 38.9003C54.6999 39.9003 54.9999 40.9003 55.5999 41.8003C55.9999 42.3003 56.2999 42.5003 56.5999 42.9003C56.8999 43.2003 57.2999 43.6003 57.5999 43.9003C58.1999 44.5003 58.8999 45.2003 59.7999 45.7003C60.5999 46.2003 61.6999 46.5003 62.6999 46.4003C63.1999 46.4003 63.5999 46.3003 63.9999 46.3003C64.4999 46.3003 64.8999 46.3003 65.2999 46.3003C66.9999 46.4003 68.5999 46.7003 70.0999 47.3003C70.8999 47.6003 71.5999 47.9003 72.1999 48.3003C72.4999 48.5003 72.7999 48.7003 73.0999 48.9003C73.4999 49.2003 73.6999 49.4003 74.0999 49.6003C75.4999 50.5003 77.0999 50.7003 78.4999 50.6003C79.1999 50.5003 79.8999 50.4003 80.4999 50.2003C80.7999 50.1003 81.0999 50.1003 81.3999 50.0003H81.5999H81.6999H81.7999H81.8999C81.9999 50.0003 82.2999 49.8003 82.3999 49.7003C82.9999 49.2003 83.1999 48.6003 83.4999 48.1003C83.7999 47.6003 83.9999 47.0003 84.0999 46.5003C84.2999 45.9003 84.3999 45.4003 84.3999 44.9003C84.3999 44.8003 84.3999 44.6003 84.3999 44.5003C84.3999 44.3003 84.3999 44.2003 84.2999 44.1003C84.1999 43.9003 84.0999 43.7003 83.9999 43.5003ZM83.9999 43.5003C83.0999 42.0003 81.8999 41.3003 80.9999 40.9003C80.5999 40.7003 80.1999 40.6003 79.9999 40.5003C79.4999 40.6003 79.3999 40.5003 79.3999 40.5003V40.4003C79.3999 40.4003 79.4999 40.4003 79.7999 40.5003C79.9999 40.6003 80.3999 40.7003 80.7999 40.9003C81.6999 41.3003 82.9999 42.0003 83.9999 43.5003Z" stroke="#C48710" stroke-width="0.5"/>
<path d="M44.7999 113.4C44.7999 113.4 45.1591 113.3 45.1999 113.3C45.2407 113.3 45.9308 113.123 46.2999 113C47.1999 112.7 48.5999 112.1 49.8999 110.7C51.1999 109.4 52.2999 107.4 52.8999 104.9C53.4999 102.4 53.5999 99.4999 53.2999 96.2999C53.0999 94.6999 52.8999 93.0999 52.5999 91.3999C52.2999 89.6999 52.0999 87.8999 51.8999 86.0999C51.4999 82.4999 51.2999 78.5999 51.3999 74.4999C51.4999 70.4999 51.7999 66.2999 52.7999 62.1999C53.2999 60.1999 53.8999 58.0999 54.9999 56.1999C55.3999 55.1999 56.0999 54.2999 56.6999 53.4999L57.7999 52.2999C58.1999 51.8999 58.5999 51.5999 59.0999 51.1999C60.7999 49.7999 62.7999 48.7999 64.8999 48.1999C66.9999 47.5999 69.1999 47.4999 71.3999 47.6999C72.4999 47.7999 73.5999 48.0999 74.4999 48.7999C75.3999 49.4999 76.1999 50.3999 76.4999 51.4999C76.7999 52.5999 76.5999 53.8999 76.1999 54.7999C75.6999 55.7999 75.0999 56.5999 74.2999 57.3999C73.8999 57.6999 73.5999 58.0999 73.0999 58.3999C72.5999 58.6999 72.1999 58.9999 71.6999 59.1999C70.7999 59.6999 69.7999 59.9999 68.8999 60.1999C66.9999 60.6999 65.0999 60.8999 63.1999 60.9999C61.2999 61.0999 59.4999 60.9999 57.7999 60.7999C56.0999 60.5999 54.3999 60.2999 52.7999 59.6999C51.0999 59.1999 49.8999 57.8999 49.1999 56.5999C48.3999 55.2999 48.0999 53.7999 47.9999 52.4999C47.8999 51.1999 48.0999 49.8999 48.3999 48.7999C48.6999 47.6999 48.8999 46.6999 49.0999 45.7999C49.4999 43.9999 49.6999 42.4999 49.6999 41.4999C49.7999 40.4999 49.5999 39.9999 49.5999 39.9999V39.8999H49.6999C49.6999 39.8999 49.8999 40.3999 49.8999 41.3999C49.8999 42.3999 49.7999 43.8999 49.4999 45.6999C49.3999 46.5999 49.1999 47.6999 48.9999 48.7999C48.7999 49.8999 48.5999 51.0999 48.6999 52.2999C48.7999 53.5999 49.1999 54.8999 49.8999 56.0999C50.2999 56.6999 50.6999 57.2999 51.1999 57.6999C51.3999 57.8999 51.7999 58.1999 52.0999 58.2999L52.5999 58.4999L53.0999 58.6999C54.5999 59.1999 56.1999 59.3999 57.8999 59.5999C59.5999 59.7999 61.3999 59.8999 63.1999 59.7999C64.9999 59.6999 66.8999 59.4999 68.6999 58.9999C69.5999 58.6999 70.4999 58.3999 71.2999 57.9999C71.7999 57.7999 72.0999 57.4999 72.4999 57.2999C72.8999 57.0999 73.2999 56.6999 73.5999 56.3999C74.9999 55.1999 76.0999 53.2999 75.5999 51.4999C75.2999 50.5999 74.6999 49.8999 73.9999 49.2999C73.2999 48.6999 72.2999 48.4999 71.2999 48.2999C67.1999 47.6999 62.8999 48.6999 59.4999 51.2999C59.0999 51.5999 58.5999 51.8999 58.2999 52.2999L57.1999 53.3999C56.5999 54.1999 55.8999 55.0999 55.3999 55.9999C54.3999 57.7999 53.6999 59.8999 53.1999 61.8999C52.1999 65.9999 51.9999 70.1999 51.9999 74.0999C51.9999 78.0999 52.3999 81.9999 52.7999 85.5999C53.1999 89.1999 53.7999 92.5999 54.0999 95.8999C54.3999 99.0999 54.1999 102.2 53.4999 104.7C52.7999 107.3 51.4999 109.3 50.1999 110.6C48.7999 111.9 47.3999 112.5 46.3999 112.8C45.8999 112.9 45.6499 112.852 45.3999 113C44.8945 113.3 44.7999 113.4 44.7999 113.4Z" fill="#C48710" stroke="#C48710" stroke-width="0.5"/>
<path d="M53.0999 89.8002C53.0999 89.8002 53.1999 89.5002 53.4999 88.9002C53.7999 88.4002 54.0999 87.6002 54.6999 86.7002C54.9999 86.3002 55.2999 85.8002 55.5999 85.3002C55.9999 84.8002 56.2999 84.3002 56.7999 83.9002C57.1999 83.4002 57.6999 82.9002 58.1999 82.5002C58.6999 82.0002 59.2999 81.6002 59.7999 81.2002C60.3999 80.8002 60.9998 80.4002 61.5998 80.1002C62.1998 79.8002 62.8999 79.6002 63.4999 79.4002C64.1999 79.3002 64.7999 79.2002 65.3999 79.2002C65.6999 79.2002 65.9999 79.2002 66.2999 79.3002C66.5999 79.4002 66.7998 79.4002 67.0998 79.5002C67.5998 79.6002 67.9999 79.9002 68.3999 80.0002C68.7999 80.2002 69.0999 80.4002 69.2999 80.6002C69.7999 81.0002 69.9999 81.2002 69.9999 81.2002C69.9999 81.2002 71.8999 83.0002 69.1999 80.8002C68.8999 80.7002 68.5999 80.5002 68.1999 80.4002C67.9999 80.3002 67.7998 80.3002 67.5998 80.2002C67.3998 80.1002 67.1999 80.1002 66.8999 80.1002C66.6999 80.1002 66.3999 80.0002 66.1999 80.0002C65.8999 80.0002 65.6999 80.0002 65.3999 80.0002C64.7999 80.0002 64.2999 80.2002 63.6999 80.3002C63.0999 80.5002 62.4999 80.7002 61.9999 81.0002C61.3999 81.3002 60.8999 81.6002 60.2999 82.0002C59.7999 82.4002 59.1999 82.8002 58.7999 83.2002C58.5999 83.4002 58.2999 83.6002 58.0999 83.8002C57.8999 84.0002 57.6999 84.2002 57.3999 84.5002C56.9999 84.9002 56.5999 85.4002 56.1999 85.8002C55.7999 86.2002 55.4999 86.6002 55.1999 87.0002C54.8999 87.4002 54.5999 87.7002 54.3999 88.1002C54.1999 88.4002 53.8999 88.7002 53.7999 89.0002C53.2999 89.5002 53.0999 89.8002 53.0999 89.8002Z" fill="#C48710" stroke="#C48710" stroke-width="0.5"/>
<path d="M61.5998 29.9999C61.5998 29.9999 61.0998 30.0999 60.0998 30.0999C59.5998 30.0999 58.9998 30.0999 58.3998 30.0999C57.6998 30.0999 56.9998 29.9999 56.1998 29.8999C55.3998 29.6999 54.4998 29.4999 53.5998 29.0999C53.1998 28.8999 52.6998 28.6999 52.2998 28.6999C51.8998 28.5999 51.4998 28.6999 51.0998 28.8999C50.3998 29.1999 49.9998 30.1999 49.6998 31.1999C49.4998 31.6999 49.2998 32.1999 48.9998 32.6999C48.6998 33.1999 48.3998 33.6999 47.9998 34.0999C47.3998 34.8999 46.7998 35.7999 46.7998 36.6999C46.8998 37.4999 47.5998 38.2999 48.2998 38.8999C49.7998 40.0999 51.5998 40.8999 52.9998 41.6999C54.3998 42.3999 55.5998 42.9999 56.4998 43.3999C56.8998 43.5999 57.2998 43.6999 57.4998 43.6999C57.6998 43.7999 57.8998 43.7999 57.8998 43.7999C57.8998 43.7999 57.7998 43.7999 57.4998 43.7999C57.1998 43.7999 56.8998 43.6999 56.3998 43.5999C55.4998 43.3999 54.1998 42.8999 52.6998 42.2999C51.9998 41.9999 51.1998 41.5999 50.2998 41.1999C49.4998 40.7999 48.5998 40.2999 47.6998 39.6999C47.2998 39.3999 46.7998 38.9999 46.4998 38.5999C46.0998 38.1999 45.7998 37.5999 45.7998 36.8999C45.7998 36.1999 45.9998 35.5999 46.1998 35.0999C46.4998 34.5999 46.7998 34.0999 47.0998 33.6999C47.3998 33.2999 47.7998 32.8999 47.9998 32.3999C48.1998 31.9999 48.3998 31.4999 48.5998 30.9999C48.7998 30.4999 48.9998 29.9999 49.2998 29.4999C49.5998 28.9999 49.9998 28.4999 50.5998 28.2999C51.0998 28.0999 51.6998 27.8999 52.2998 28.0999C52.8998 28.1999 53.2998 28.4999 53.6998 28.6999C54.4998 29.0999 55.2998 29.3999 56.0998 29.5999C56.8998 29.7999 57.5998 29.8999 58.1998 29.9999C58.7998 30.0999 59.3998 30.0999 59.8998 30.1999C61.0998 29.8999 61.5998 29.9999 61.5998 29.9999Z" fill="#C48710" stroke="#C48710" stroke-width="0.5"/>
<path d="M16.9998 130.2C16.9998 130.8 16.8998 131.3 16.6998 131.7C16.4998 132.1 16.1998 132.4 15.7998 132.7C15.3998 132.9 14.9998 133.1 14.4998 133.2C13.9998 133.3 13.4998 133.3 12.9998 133.3C12.7998 133.3 12.4998 133.3 12.2998 133.3C12.0998 133.3 11.7998 133.3 11.4998 133.2V136.4C11.4998 136.8 11.4998 137 11.5998 137.3C11.5998 137.5 11.6998 137.7 11.7998 137.8C11.8998 137.9 12.0998 138 12.2998 138C12.4998 138 12.7998 138.1 13.1998 138.1V138.4H8.2998V138.1C8.6998 138.1 8.89981 138.1 9.19981 138C9.39981 138 9.59981 137.9 9.69981 137.8C9.79981 137.7 9.89981 137.5 9.89981 137.3C9.89981 137.1 9.89981 136.8 9.89981 136.4V129C9.89981 128.6 9.89981 128.4 9.89981 128.1C9.89981 127.9 9.79981 127.7 9.69981 127.6C9.59981 127.5 9.39981 127.4 9.19981 127.3C8.99981 127.3 8.6998 127.2 8.2998 127.2V126.9H12.4998C12.9998 126.9 13.4998 126.9 14.0998 127C14.5998 127.1 15.0998 127.3 15.5998 127.5C15.9998 127.7 16.3998 128.1 16.6998 128.5C16.8998 129 16.9998 129.6 16.9998 130.2ZM15.0998 130.4C15.0998 130 14.9998 129.7 14.8998 129.4C14.7998 129.1 14.5998 128.8 14.3998 128.5C14.1998 128.3 13.8998 128.1 13.5998 127.9C13.2998 127.8 12.9998 127.7 12.5998 127.7C12.3998 127.7 12.1998 127.7 11.9998 127.8C11.7998 127.8 11.5998 127.9 11.3998 127.9V132.8C11.5998 132.8 11.8998 132.9 12.0998 132.9C12.2998 132.9 12.5998 132.9 12.7998 132.9C13.0998 132.9 13.3998 132.8 13.6998 132.7C13.9998 132.6 14.1998 132.4 14.3998 132.1C14.5998 131.9 14.6998 131.6 14.7998 131.3C14.9998 131 15.0998 130.7 15.0998 130.4ZM28.2998 138.5L24.3998 133.1C24.2998 133.1 24.0998 133.1 23.9998 133.1C23.8998 133.1 23.6998 133.1 23.5998 133.1C23.4998 133.1 23.4998 133.1 23.3998 133.1C23.2998 133.1 23.2998 133.1 23.1998 133.1V136.4C23.1998 136.8 23.1998 137 23.2998 137.3C23.2998 137.5 23.3998 137.7 23.4998 137.8C23.5998 137.9 23.7998 138 23.9998 138C24.1998 138 24.4998 138.1 24.8998 138.1V138.4H19.9998V138.1C20.3998 138.1 20.6998 138.1 20.8998 138C21.0998 137.9 21.2998 137.9 21.3998 137.8C21.4998 137.7 21.5998 137.5 21.5998 137.3C21.5998 137.1 21.5998 136.8 21.5998 136.4V129C21.5998 128.6 21.5998 128.4 21.5998 128.1C21.5998 127.9 21.4998 127.7 21.3998 127.6C21.2998 127.5 21.0998 127.4 20.8998 127.3C20.6998 127.3 20.3998 127.2 19.9998 127.2V126.9H24.2998C24.5998 126.9 24.9998 126.9 25.2998 126.9C25.6998 126.9 25.9998 127 26.2998 127C26.5998 127.1 26.9998 127.2 27.2998 127.3C27.5998 127.4 27.8998 127.6 28.0998 127.8C28.2998 128 28.4998 128.3 28.6998 128.6C28.7998 128.9 28.8998 129.3 28.8998 129.7C28.8998 130.1 28.7998 130.5 28.6998 130.9C28.5998 131.2 28.3998 131.5 28.0998 131.8C27.8998 132 27.5998 132.2 27.1998 132.4C26.8998 132.5 26.4998 132.7 26.0998 132.7L28.3998 136C28.5998 136.3 28.7998 136.6 28.9998 136.8C29.1998 137 29.3998 137.2 29.5998 137.4C29.7998 137.6 30.0998 137.7 30.2998 137.8C30.5998 137.9 30.8998 138 31.2998 138V138.3H28.2998V138.5ZM26.9998 130.1C26.9998 129.7 26.8998 129.4 26.7998 129.1C26.6998 128.8 26.4998 128.5 26.2998 128.3C26.0998 128.1 25.7998 127.9 25.4998 127.8C25.1998 127.7 24.8998 127.6 24.4998 127.6C24.2998 127.6 24.0998 127.6 23.7998 127.6C23.5998 127.6 23.3998 127.7 23.0998 127.7V132.5H23.5998C23.9998 132.5 24.3998 132.5 24.7998 132.4C25.1998 132.3 25.5998 132.2 25.8998 132C26.1998 131.8 26.4998 131.6 26.6998 131.2C26.8998 131 26.9998 130.6 26.9998 130.1ZM42.4998 138.5H33.6998V138.2C34.0998 138.2 34.2998 138.2 34.5998 138.1C34.7998 138.1 34.9998 138 35.0998 137.9C35.1998 137.8 35.2998 137.6 35.2998 137.4C35.2998 137.2 35.3998 136.9 35.3998 136.5V129C35.3998 128.6 35.3998 128.4 35.3998 128.1C35.3998 127.9 35.2998 127.7 35.1998 127.6C35.0998 127.5 34.8998 127.4 34.6998 127.4C34.4998 127.4 34.1998 127.3 33.7998 127.3V127H42.5998L42.6998 129.5H42.3998C42.2998 129.1 42.1998 128.8 42.0998 128.6C41.9998 128.4 41.8998 128.2 41.7998 128C41.6998 127.9 41.4998 127.8 41.1998 127.7C40.9998 127.6 40.5998 127.6 40.1998 127.6H36.9998V132.1H39.4998C39.8998 132.1 40.0998 132.1 40.2998 132C40.4998 131.9 40.6998 131.9 40.7998 131.7C40.8998 131.6 40.9998 131.4 41.0998 131.2C41.1998 131 41.1998 130.7 41.2998 130.4H41.5998V134.4H41.2998C41.2998 134.1 41.1998 133.8 41.0998 133.6C40.9998 133.4 40.8998 133.2 40.7998 133.1C40.6998 133 40.4998 132.9 40.2998 132.8C40.0998 132.7 39.7998 132.7 39.3998 132.7H36.8998V136.5C36.8998 136.7 36.8998 136.9 36.8998 137.1C36.8998 137.3 36.9998 137.4 36.9998 137.5C37.0998 137.6 37.1998 137.7 37.2998 137.7C37.3998 137.8 37.5998 137.8 37.8998 137.8H39.7998C40.2998 137.8 40.6998 137.8 40.9998 137.7C41.2998 137.6 41.5998 137.5 41.7998 137.3C41.9998 137.1 42.2998 136.9 42.3998 136.6C42.5998 136.3 42.7998 136 42.9998 135.6H43.3998L42.4998 138.5ZM54.6998 135.6C54.6998 136.1 54.5998 136.5 54.3998 136.9C54.1998 137.3 53.8998 137.6 53.5998 137.9C53.2998 138.2 52.8998 138.4 52.4998 138.5C52.0998 138.6 51.5998 138.7 51.1998 138.7C50.8998 138.7 50.5998 138.7 50.2998 138.6C49.9998 138.5 49.6998 138.5 49.3998 138.4C49.0998 138.3 48.8998 138.2 48.6998 138.2C48.4998 138.1 48.2998 138.1 48.0998 138.1C47.9998 138.1 47.8998 138.1 47.8998 138.2C47.7998 138.2 47.7998 138.3 47.6998 138.4C47.6998 138.5 47.5998 138.5 47.5998 138.6C47.5998 138.7 47.5998 138.8 47.5998 138.8H47.2998V134.8H47.5998C47.6998 135.3 47.7998 135.7 47.8998 136.1C48.0998 136.5 48.2998 136.9 48.5998 137.1C48.8998 137.4 49.1998 137.6 49.5998 137.8C49.9998 138 50.4998 138 50.9998 138C51.2998 138 51.5998 138 51.7998 137.9C52.0998 137.8 52.2998 137.7 52.4998 137.5C52.6998 137.3 52.8998 137.1 52.9998 136.9C53.0998 136.7 53.1998 136.4 53.1998 136.1C53.1998 135.8 53.0998 135.5 52.8998 135.2C52.6998 134.9 52.4998 134.7 52.1998 134.5C51.8998 134.3 51.5998 134.1 51.1998 133.8C50.7998 133.6 50.4998 133.4 50.0998 133.2C49.6998 133 49.3998 132.8 48.9998 132.5C48.5998 132.3 48.2998 132 47.9998 131.7C47.6998 131.4 47.4998 131.1 47.2998 130.8C47.0998 130.5 46.9998 130.1 46.9998 129.6C46.9998 129.1 47.0998 128.7 47.2998 128.3C47.4998 127.9 47.6998 127.6 47.9998 127.4C48.2998 127.1 48.6998 126.9 49.0998 126.8C49.4998 126.7 49.8998 126.6 50.3998 126.6C50.6998 126.6 50.8998 126.6 51.1998 126.7C51.4998 126.8 51.6998 126.8 51.8998 126.9C52.0998 127 52.3998 127 52.5998 127.1C52.7998 127.2 52.9998 127.2 53.0998 127.2C53.1998 127.2 53.2998 127.2 53.2998 127.1C53.3998 127.1 53.3998 127 53.4998 126.9C53.4998 126.8 53.5998 126.8 53.5998 126.7C53.5998 126.6 53.6998 126.6 53.6998 126.5H53.9998V130.5H53.6998C53.6998 130 53.5998 129.6 53.3998 129.2C53.1998 128.8 52.9998 128.4 52.7998 128.2C52.4998 127.9 52.1998 127.7 51.7998 127.5C51.3998 127.3 50.9998 127.2 50.4998 127.2C50.1998 127.2 49.9998 127.2 49.7998 127.3C49.5998 127.4 49.2998 127.5 49.0998 127.7C48.8998 127.9 48.7998 128 48.5998 128.3C48.4998 128.5 48.3998 128.7 48.3998 129C48.3998 129.3 48.4998 129.6 48.6998 129.9C48.8998 130.2 49.0998 130.4 49.3998 130.6C49.6998 130.8 49.9998 131 50.3998 131.2C50.7998 131.4 51.1998 131.6 51.4998 131.8C51.8998 132 52.2998 132.2 52.6998 132.5C53.0998 132.7 53.3998 133 53.6998 133.3C53.9998 133.6 54.1998 133.9 54.3998 134.3C54.5998 134.7 54.6998 135.1 54.6998 135.6ZM66.8998 138.5H58.0998V138.2C58.4998 138.2 58.6998 138.2 58.9998 138.1C59.1998 138.1 59.3998 138 59.4998 137.9C59.5998 137.8 59.6998 137.6 59.6998 137.4C59.6998 137.2 59.7998 136.9 59.7998 136.5V129C59.7998 128.6 59.7998 128.4 59.7998 128.1C59.7998 127.9 59.6998 127.7 59.5998 127.6C59.4998 127.5 59.2998 127.4 59.0998 127.4C58.8998 127.4 58.5998 127.3 58.1998 127.3V127H66.9998L67.0998 129.5H66.7998C66.6998 129.1 66.5998 128.8 66.4998 128.6C66.3998 128.4 66.2998 128.2 66.1998 128C66.0998 127.9 65.8998 127.8 65.5998 127.7C65.3998 127.6 64.9998 127.6 64.5998 127.6H61.3998V132.1H63.8998C64.2998 132.1 64.4998 132.1 64.6998 132C64.8998 131.9 65.0998 131.9 65.1998 131.7C65.2998 131.6 65.3998 131.4 65.4998 131.2C65.5998 131 65.5998 130.7 65.6998 130.4H65.9998V134.4H65.6998C65.6998 134.1 65.5998 133.8 65.4998 133.6C65.3998 133.4 65.2998 133.2 65.1998 133.1C65.0998 133 64.8998 132.9 64.6998 132.8C64.4998 132.7 64.1998 132.7 63.7998 132.7H61.2998V136.5C61.2998 136.7 61.2998 136.9 61.2998 137.1C61.2998 137.3 61.3998 137.4 61.3998 137.5C61.4998 137.6 61.5998 137.7 61.6998 137.7C61.7998 137.8 61.9998 137.8 62.2998 137.8H64.1998C64.6998 137.8 65.0998 137.8 65.3998 137.7C65.6998 137.6 65.9998 137.5 66.1998 137.3C66.3998 137.1 66.6998 136.9 66.7998 136.6C66.9998 136.3 67.1998 136 67.3998 135.6H67.7998L66.8998 138.5ZM78.9998 138.5L75.0998 133.1C74.9998 133.1 74.7998 133.1 74.6998 133.1C74.5998 133.1 74.3998 133.1 74.2998 133.1C74.1998 133.1 74.1998 133.1 74.0998 133.1C73.9998 133.1 73.9998 133.1 73.8998 133.1V136.4C73.8998 136.8 73.8998 137 73.9998 137.3C73.9998 137.5 74.0998 137.7 74.1998 137.8C74.2998 137.9 74.4998 138 74.6998 138C74.8998 138 75.1998 138.1 75.5998 138.1V138.4H70.6998V138.1C71.0998 138.1 71.3998 138.1 71.5998 138C71.7998 137.9 71.9998 137.9 72.0998 137.8C72.1998 137.7 72.2998 137.5 72.2998 137.3C72.2998 137.1 72.2998 136.8 72.2998 136.4V129C72.2998 128.6 72.2998 128.4 72.2998 128.1C72.2998 127.9 72.1998 127.7 72.0998 127.6C71.9998 127.5 71.7998 127.4 71.5998 127.3C71.3998 127.3 71.0998 127.2 70.6998 127.2V126.9H74.9998C75.2998 126.9 75.6998 126.9 75.9998 126.9C76.3998 126.9 76.6998 127 76.9998 127C77.2998 127.1 77.6998 127.2 77.9998 127.3C78.2998 127.4 78.5998 127.6 78.7998 127.8C78.9998 128 79.1998 128.3 79.3998 128.6C79.4998 128.9 79.5998 129.3 79.5998 129.7C79.5998 130.1 79.4998 130.5 79.3998 130.9C79.2998 131.2 79.0998 131.5 78.7998 131.8C78.5998 132 78.2998 132.2 77.8998 132.4C77.5998 132.5 77.1998 132.7 76.7998 132.7L79.0998 136C79.2998 136.3 79.4998 136.6 79.6998 136.8C79.8998 137 80.0998 137.2 80.2998 137.4C80.4998 137.6 80.7998 137.7 80.9998 137.8C81.2998 137.9 81.5998 138 81.9998 138V138.3H78.9998V138.5ZM77.6998 130.1C77.6998 129.7 77.5998 129.4 77.4998 129.1C77.3998 128.8 77.1998 128.5 76.9998 128.3C76.7998 128.1 76.4998 127.9 76.1998 127.8C75.8998 127.7 75.5998 127.6 75.1998 127.6C74.9998 127.6 74.7998 127.6 74.4998 127.6C74.2998 127.6 74.0998 127.7 73.7998 127.7V132.5H74.2998C74.6998 132.5 75.0998 132.5 75.4998 132.4C75.8998 132.3 76.2998 132.2 76.5998 132C76.8998 131.8 77.1998 131.6 77.3998 131.2C77.5998 131 77.6998 130.6 77.6998 130.1ZM96.2998 127.3C96.0998 127.3 95.8998 127.4 95.6998 127.5C95.4998 127.6 95.3998 127.7 95.1998 127.9C95.0998 128 94.8998 128.2 94.8998 128.4C94.7998 128.6 94.6998 128.8 94.5998 129L90.5998 138.8H90.2998L85.9998 128.9C85.8998 128.7 85.7998 128.5 85.6998 128.3C85.5998 128.1 85.4998 128 85.3998 127.8C85.2998 127.7 85.0998 127.6 84.8998 127.5C84.6998 127.4 84.4998 127.4 84.1998 127.3V127H88.8998V127.3C88.7998 127.3 88.5998 127.3 88.4998 127.3C88.3998 127.3 88.1998 127.4 88.0998 127.4C87.9998 127.5 87.8998 127.5 87.7998 127.6C87.6998 127.7 87.6998 127.8 87.6998 128C87.6998 128.2 87.6998 128.4 87.7998 128.6C87.8998 128.8 87.9998 129 88.0998 129.3L90.9998 136L93.6998 129.3C93.6998 129.2 93.7998 129.1 93.7998 129C93.7998 128.9 93.8998 128.8 93.8998 128.7C93.8998 128.6 93.9998 128.5 93.9998 128.3C93.9998 128.2 93.9998 128.1 93.9998 128C93.9998 127.8 93.9998 127.7 93.8998 127.6C93.7998 127.5 93.6998 127.4 93.5998 127.4C93.4998 127.3 93.2998 127.3 93.1998 127.3C93.0998 127.3 92.8998 127.2 92.7998 127.2V126.9H96.2998V127.3ZM107.7 138.5H98.8998V138.2C99.2998 138.2 99.4998 138.2 99.7998 138.1C99.9998 138.1 100.2 138 100.3 137.9C100.4 137.8 100.5 137.6 100.5 137.4C100.5 137.2 100.6 136.9 100.6 136.5V129C100.6 128.6 100.6 128.4 100.6 128.1C100.6 127.9 100.5 127.7 100.4 127.6C100.3 127.5 100.1 127.4 99.8998 127.4C99.6998 127.4 99.3998 127.3 98.9998 127.3V127H107.8L107.9 129.5H107.6C107.5 129.1 107.4 128.8 107.3 128.6C107.2 128.4 107.1 128.2 107 128C106.9 127.9 106.7 127.8 106.4 127.7C106.2 127.6 105.8 127.6 105.4 127.6H102.2V132.1H104.7C105.1 132.1 105.3 132.1 105.5 132C105.7 131.9 105.9 131.9 106 131.7C106.1 131.6 106.2 131.4 106.3 131.2C106.4 131 106.4 130.7 106.5 130.4H106.8V134.4H106.5C106.5 134.1 106.4 133.8 106.3 133.6C106.2 133.4 106.1 133.2 106 133.1C105.9 133 105.7 132.9 105.5 132.8C105.3 132.7 105 132.7 104.6 132.7H102.1V136.5C102.1 136.7 102.1 136.9 102.1 137.1C102.1 137.3 102.2 137.4 102.2 137.5C102.3 137.6 102.4 137.7 102.5 137.7C102.6 137.8 102.8 137.8 103.1 137.8H105C105.5 137.8 105.9 137.8 106.2 137.7C106.5 137.6 106.8 137.5 107 137.3C107.2 137.1 107.5 136.9 107.6 136.6C107.8 136.3 108 136 108.2 135.6H108.6L107.7 138.5Z" fill="#C48710"/>
<path d="M11.5 59.5C11.5 33.8 32.3 13 58 13C83.7 13 104.5 33.8 104.5 59.5V118H11.5V59.5Z" stroke="#C48710"/>
<path d="M109 117H6V123H109V117Z" fill="white"/>
</svg>
