<svg width="165" height="119" viewBox="0 0 165 119" fill="none" xmlns="http://www.w3.org/2000/svg">
<path d="M8.28 71.46C6.72 71.26 5.46 70.54 4.5 69.3C3.54 68.06 3.06 66.52 3.06 64.68C3.06 61.8 4.18 58.88 6.42 55.92C6.78 55.44 7.1 55.2 7.38 55.2C7.54 55.2 7.62 55.3 7.62 55.5C7.62 55.78 7.46 56.14 7.14 56.58C5.46 58.9 4.62 61.48 4.62 64.32C4.62 65.92 4.94 67.22 5.58 68.22C6.22 69.22 7.14 69.72 8.34 69.72C12.82 69.68 18.12 63.46 24.24 51.06C24.16 51.02 24.04 51 23.88 51C23.76 50.96 23.6 50.94 23.4 50.94C22.6 50.86 22.2 50.58 22.2 50.1C22.2 49.62 23.08 49.44 24.84 49.56C25.64 47.92 26.46 46.14 27.3 44.22C28.18 42.3 29.06 40.26 29.94 38.1C30.86 35.94 31.54 34.32 31.98 33.24C32.46 32.16 32.7 31.62 32.7 31.62C32.86 31.22 33.24 31.02 33.84 31.02C34.32 31.02 34.78 31.18 35.22 31.5C35.7 31.82 35.94 32.18 35.94 32.58C35.94 32.62 35.9 32.76 35.82 33C35.18 34.48 34.16 36.62 32.76 39.42C31.36 42.22 29.6 45.68 27.48 49.8C32.52 50.04 37.2 49.08 41.52 46.92C45.44 45.04 48 42.82 49.2 40.26C49.92 38.74 50.28 37.34 50.28 36.06C50.28 33.46 48.92 31.34 46.2 29.7C44.12 28.38 41.52 27.54 38.4 27.18C36.32 26.94 34.24 26.82 32.16 26.82C24.6 26.82 17.98 28.34 12.3 31.38C7.14 34.06 4.56 36.8 4.56 39.6C4.56 39.92 4.64 40.32 4.8 40.8C4.96 41.24 5.04 41.56 5.04 41.76C5.04 41.92 4.98 42 4.86 42C4.7 42 4.4 41.84 3.96 41.52C2.92 40.72 2.4 39.74 2.4 38.58C2.4 35.58 4.82 32.8 9.66 30.24C15.38 27.24 22.88 25.74 32.16 25.74C33.2 25.74 34.24 25.76 35.28 25.8C36.32 25.84 37.38 25.9 38.46 25.98C41.7 26.22 44.86 27.18 47.94 28.86C51.82 31.02 53.76 33.72 53.76 36.96C53.76 38.2 53.5 39.42 52.98 40.62C51.94 43.14 49.08 45.4 44.4 47.4C41.84 48.52 39.1 49.38 36.18 49.98C33.26 50.54 30.14 50.86 26.82 50.94C18.98 65.14 12.8 71.98 8.28 71.46ZM44.5706 66.72C44.0106 66.72 43.7306 66.54 43.7306 66.18C43.7306 66.14 43.7706 66 43.8506 65.76C45.7306 62.16 47.9506 57.02 50.5106 50.34C50.7906 49.62 51.2706 49 51.9506 48.48C52.6306 47.92 53.2106 47.64 53.6906 47.64C54.2106 47.64 54.4306 47.92 54.3506 48.48C53.9506 49.32 53.4706 50.4 52.9106 51.72C52.3506 53.04 51.6906 54.58 50.9306 56.34C52.0506 54.86 53.7106 53.2 55.9106 51.36C57.0306 50.44 57.9906 49.68 58.7906 49.08C59.6306 48.48 60.3306 48.04 60.8906 47.76C61.4506 47.48 62.0706 47.34 62.7506 47.34C63.5506 47.34 64.2306 47.54 64.7906 47.94C65.3506 48.34 65.6306 48.8 65.6306 49.32C65.6306 49.64 65.4706 50 65.1506 50.4C64.8706 50.76 64.5706 50.94 64.2506 50.94C64.0906 50.94 63.7506 50.78 63.2306 50.46C62.7506 50.1 62.2306 49.92 61.6706 49.92C61.0706 49.92 60.3706 50.1 59.5706 50.46C54.4906 52.74 50.1106 57.88 46.4306 65.88C46.1906 66.44 45.5706 66.72 44.5706 66.72ZM65.7239 66.48C64.5639 66.48 63.5439 66.2 62.6639 65.64C61.5039 64.84 60.9239 63.68 60.9239 62.16C60.9239 60.52 61.6239 58.52 63.0239 56.16C64.9039 53.08 67.6639 50.38 71.3039 48.06C72.2239 47.46 73.1439 47.16 74.0639 47.16C75.2639 47.16 76.1239 47.54 76.6439 48.3C76.9639 48.74 77.1239 49.24 77.1239 49.8C77.1239 51.48 75.7639 53.32 73.0439 55.32C72.2439 55.88 71.3839 56.4 70.4639 56.88C69.5839 57.32 68.6239 57.64 67.5839 57.84L65.0039 58.38C64.0439 60.1 63.5639 61.54 63.5639 62.7C63.5639 64.3 64.5039 65.1 66.3839 65.1C67.8639 65.1 69.6639 64.48 71.7839 63.24C74.6239 61.6 77.0639 59.32 79.1039 56.4C79.4239 55.92 79.7239 55.68 80.0039 55.68C80.1239 55.68 80.1839 55.76 80.1839 55.92C80.1839 56.12 80.0439 56.42 79.7639 56.82C75.8839 62.66 71.5039 65.86 66.6239 66.42C66.4639 66.46 66.3039 66.48 66.1439 66.48C66.0239 66.48 65.8839 66.48 65.7239 66.48ZM65.7239 57.36C66.8439 57.36 68.2839 56.86 70.0439 55.86C72.5239 54.46 74.2639 52.66 75.2639 50.46C75.5439 49.9 75.6839 49.44 75.6839 49.08C75.6839 48.72 75.5439 48.54 75.2639 48.54C74.7439 48.54 73.6839 49.18 72.0839 50.46C70.9239 51.46 69.7839 52.54 68.6639 53.7C67.5839 54.82 66.5439 56.02 65.5439 57.3C65.5039 57.34 65.5639 57.36 65.7239 57.36ZM81.2011 66.72C80.9611 66.8 79.9811 66.28 78.2611 65.16C78.0611 64.96 77.9611 64.58 77.9611 64.02C77.9611 61.38 79.1011 56.98 81.3811 50.82C81.9411 49.26 82.7011 48.48 83.6611 48.48C84.1411 48.48 84.5611 48.7 84.9211 49.14C85.3211 49.54 85.4611 49.86 85.3411 50.1C84.9011 51.02 84.4211 52.08 83.9011 53.28C83.4211 54.44 82.9011 55.74 82.3411 57.18C80.9811 60.66 80.3011 63.06 80.3011 64.38C80.3011 64.94 80.4811 65.22 80.8411 65.22C81.0011 65.22 81.1611 65.16 81.3211 65.04C81.9611 64.64 82.9011 63.8 84.1411 62.52C85.3811 61.24 86.9211 59.54 88.7611 57.42C92.7611 52.82 95.3411 49.38 96.5011 47.1C97.0611 46.06 97.6411 45.54 98.2411 45.54C98.7611 45.54 99.0211 45.86 99.0211 46.5C99.0211 47.1 98.7011 47.78 98.0611 48.54C96.5811 50.3 94.9811 52.16 93.2611 54.12C91.5811 56.04 89.8011 58.06 87.9211 60.18C83.7211 64.7 81.4811 66.88 81.2011 66.72ZM99.7083 66.48C98.5483 66.48 97.5283 66.2 96.6483 65.64C95.4883 64.84 94.9083 63.68 94.9083 62.16C94.9083 60.52 95.6083 58.52 97.0083 56.16C98.8883 53.08 101.648 50.38 105.288 48.06C106.208 47.46 107.128 47.16 108.048 47.16C109.248 47.16 110.108 47.54 110.628 48.3C110.948 48.74 111.108 49.24 111.108 49.8C111.108 51.48 109.748 53.32 107.028 55.32C106.228 55.88 105.368 56.4 104.448 56.88C103.568 57.32 102.608 57.64 101.568 57.84L98.9883 58.38C98.0283 60.1 97.5483 61.54 97.5483 62.7C97.5483 64.3 98.4883 65.1 100.368 65.1C101.848 65.1 103.648 64.48 105.768 63.24C108.608 61.6 111.048 59.32 113.088 56.4C113.408 55.92 113.708 55.68 113.988 55.68C114.108 55.68 114.168 55.76 114.168 55.92C114.168 56.12 114.028 56.42 113.748 56.82C109.868 62.66 105.488 65.86 100.608 66.42C100.448 66.46 100.288 66.48 100.128 66.48C100.008 66.48 99.8683 66.48 99.7083 66.48ZM99.7083 57.36C100.828 57.36 102.268 56.86 104.028 55.86C106.508 54.46 108.248 52.66 109.248 50.46C109.528 49.9 109.668 49.44 109.668 49.08C109.668 48.72 109.528 48.54 109.248 48.54C108.728 48.54 107.668 49.18 106.068 50.46C104.908 51.46 103.768 52.54 102.648 53.7C101.568 54.82 100.528 56.02 99.5283 57.3C99.4883 57.34 99.5483 57.36 99.7083 57.36ZM109.785 66.72C109.225 66.72 108.945 66.54 108.945 66.18C108.945 66.14 108.985 66 109.065 65.76C110.945 62.16 113.165 57.02 115.725 50.34C116.005 49.62 116.485 49 117.165 48.48C117.845 47.92 118.425 47.64 118.905 47.64C119.425 47.64 119.645 47.92 119.565 48.48C119.165 49.32 118.685 50.4 118.125 51.72C117.565 53.04 116.905 54.58 116.145 56.34C117.265 54.86 118.925 53.2 121.125 51.36C122.245 50.44 123.205 49.68 124.005 49.08C124.845 48.48 125.545 48.04 126.105 47.76C126.665 47.48 127.285 47.34 127.965 47.34C128.765 47.34 129.445 47.54 130.005 47.94C130.565 48.34 130.845 48.8 130.845 49.32C130.845 49.64 130.685 50 130.365 50.4C130.085 50.76 129.785 50.94 129.465 50.94C129.305 50.94 128.965 50.78 128.445 50.46C127.965 50.1 127.445 49.92 126.885 49.92C126.285 49.92 125.585 50.1 124.785 50.46C119.705 52.74 115.325 57.88 111.645 65.88C111.405 66.44 110.785 66.72 109.785 66.72ZM131.299 66.72C131.059 66.8 130.079 66.28 128.359 65.16C128.159 64.96 128.059 64.58 128.059 64.02C128.059 61.38 129.199 56.98 131.479 50.82C132.039 49.26 132.799 48.48 133.759 48.48C134.239 48.48 134.659 48.7 135.019 49.14C135.419 49.54 135.559 49.86 135.439 50.1C134.999 51.02 134.519 52.08 133.999 53.28C133.519 54.44 132.999 55.74 132.439 57.18C131.079 60.66 130.399 63.06 130.399 64.38C130.399 64.94 130.579 65.22 130.939 65.22C131.099 65.22 131.259 65.16 131.419 65.04C132.059 64.64 132.999 63.8 134.239 62.52C135.479 61.24 137.019 59.54 138.859 57.42C142.859 52.82 145.439 49.38 146.599 47.1C147.159 46.06 147.739 45.54 148.339 45.54C148.859 45.54 149.119 45.86 149.119 46.5C149.119 47.1 148.799 47.78 148.159 48.54C146.679 50.3 145.079 52.16 143.359 54.12C141.679 56.04 139.899 58.06 138.019 60.18C133.819 64.7 131.579 66.88 131.299 66.72ZM149.806 66.48C148.646 66.48 147.626 66.2 146.746 65.64C145.586 64.84 145.006 63.68 145.006 62.16C145.006 60.52 145.706 58.52 147.106 56.16C148.986 53.08 151.746 50.38 155.386 48.06C156.306 47.46 157.226 47.16 158.146 47.16C159.346 47.16 160.206 47.54 160.726 48.3C161.046 48.74 161.206 49.24 161.206 49.8C161.206 51.48 159.846 53.32 157.126 55.32C156.326 55.88 155.466 56.4 154.546 56.88C153.666 57.32 152.706 57.64 151.666 57.84L149.086 58.38C148.126 60.1 147.646 61.54 147.646 62.7C147.646 64.3 148.586 65.1 150.466 65.1C151.946 65.1 153.746 64.48 155.866 63.24C158.706 61.6 161.146 59.32 163.186 56.4C163.506 55.92 163.806 55.68 164.086 55.68C164.206 55.68 164.266 55.76 164.266 55.92C164.266 56.12 164.126 56.42 163.846 56.82C159.966 62.66 155.586 65.86 150.706 66.42C150.546 66.46 150.386 66.48 150.226 66.48C150.106 66.48 149.966 66.48 149.806 66.48ZM149.806 57.36C150.926 57.36 152.366 56.86 154.126 55.86C156.606 54.46 158.346 52.66 159.346 50.46C159.626 49.9 159.766 49.44 159.766 49.08C159.766 48.72 159.626 48.54 159.346 48.54C158.826 48.54 157.766 49.18 156.166 50.46C155.006 51.46 153.866 52.54 152.746 53.7C151.666 54.82 150.626 56.02 149.626 57.3C149.586 57.34 149.646 57.36 149.806 57.36Z" fill="#D9D9D9"/>
<path d="M87.7656 79.4707C87.7656 79.8613 87.6387 80.1738 87.3848 80.4082C87.2676 80.4668 87.082 80.7207 86.8281 81.1699C86.5938 81.5996 86.3105 82.1172 85.9785 82.7227C85.666 83.3086 85.4609 83.6895 85.3633 83.8652C85.207 84.0996 85.0215 84.4219 84.8066 84.832C84.6113 85.2422 84.4551 85.5645 84.3379 85.7988C84.2402 86.0332 84.0645 86.4434 83.8105 87.0293C83.5762 87.6152 83.4492 87.9277 83.4297 87.9668C83.2344 88.377 82.6484 89.207 81.6719 90.457C80.6953 91.707 80.0996 92.5566 79.8848 93.0059C79.6113 93.4941 79.3184 93.9043 79.0059 94.2363C78.6934 94.5684 78.4297 94.7539 78.2148 94.793C78.0195 94.832 77.8535 94.7832 77.7168 94.6465C77.541 94.4707 77.502 94.2754 77.5996 94.0605C77.6973 93.8262 77.8242 93.6406 77.9805 93.5039C78.1367 93.3477 78.3125 93.1621 78.5078 92.9473C78.7227 92.7324 78.8496 92.5469 78.8887 92.3906C79.1426 92.0391 79.5723 91.4727 80.1777 90.6914C80.7832 89.9102 81.3301 89.168 81.8184 88.4648C82.3066 87.7422 82.6777 87.0684 82.9316 86.4434C83.0879 86.0137 83.2344 85.623 83.3711 85.2715C83.5273 84.9199 83.7031 84.5391 83.8984 84.1289C84.1133 83.7188 84.2695 83.416 84.3672 83.2207C84.4844 83.0254 84.6992 82.6445 85.0117 82.0781C85.3438 81.4922 85.5781 81.0625 85.7148 80.7891C85.8516 80.5352 86.0566 80.252 86.3301 79.9395C86.6035 79.627 86.7891 79.4707 86.8867 79.4707C86.9453 79.4707 87.043 79.3926 87.1797 79.2363C87.3555 79.0605 87.4922 78.9922 87.5898 79.0312C87.707 79.0703 87.7656 79.2168 87.7656 79.4707ZM87.1504 82.4883L87.5898 82.5469C87.7852 82.5859 88.5469 82.8008 89.875 83.1914C91.2227 83.5625 92.1211 83.7383 92.5703 83.7188C92.8242 83.7383 93.2637 83.8359 93.8887 84.0117C94.5137 84.168 94.9238 84.2559 95.1191 84.2754C95.4707 84.2949 95.7051 84.3926 95.8223 84.5684C95.9395 84.7246 95.9492 84.9004 95.8516 85.0957C95.7734 85.291 95.6367 85.4766 95.4414 85.6523L94.8262 85.5938C94.5332 85.5742 94.3379 85.5547 94.2402 85.5352C94.1621 85.4961 94.0645 85.4082 93.9473 85.2715C93.8301 85.1348 93.6836 85.0469 93.5078 85.0078C93.332 84.9688 92.8047 84.8906 91.9258 84.7734C91.7109 84.7148 91.1445 84.5977 90.2266 84.4219C89.3281 84.2461 88.5664 84.0801 87.9414 83.9238C87.3164 83.7676 86.8477 83.6309 86.5352 83.5137C86.457 83.4551 86.4277 83.3867 86.4473 83.3086C86.4863 83.2305 86.6035 83.084 86.7988 82.8691L87.1504 82.4883ZM89.4355 90.1934C89.0254 90.252 88.5176 90.457 87.9121 90.8086C87.3066 91.1406 86.8184 91.3359 86.4473 91.3945C86.4082 91.3945 86.2617 91.4238 86.0078 91.4824C85.7734 91.541 85.5684 91.5898 85.3926 91.6289C85.2168 91.6484 85.0898 91.6191 85.0117 91.541C84.6992 91.1895 84.7188 90.8867 85.0703 90.6328C85.4219 90.3594 85.8027 90.2227 86.2129 90.2227C86.4277 90.1641 86.8477 89.9883 87.4727 89.6953C88.1172 89.4023 88.5664 89.2168 88.8203 89.1387C89.4258 88.9238 89.8457 88.8262 90.0801 88.8457C90.3145 88.8652 90.4805 89.002 90.5781 89.2559C90.6758 89.5098 90.6172 89.7246 90.4023 89.9004C90.1875 90.0762 89.8652 90.1738 89.4355 90.1934ZM88.4688 101.707C88.0977 101.824 87.6191 101.932 87.0332 102.029C86.4668 102.146 85.9492 102.234 85.4805 102.293C85.0117 102.352 84.4258 102.42 83.7227 102.498C83.0195 102.596 82.541 102.664 82.2871 102.703C82.0723 102.723 81.916 102.576 81.8184 102.264C81.7207 101.951 81.7695 101.717 81.9648 101.561C82.1406 101.346 82.3164 101.209 82.4922 101.15C82.668 101.092 82.9902 101.072 83.459 101.092C84.6699 101.111 85.627 101.053 86.3301 100.916L86.7402 100.828V100.359C86.7207 100.105 86.7207 99.959 86.7402 99.9199C86.7793 99.8613 86.9062 99.7832 87.1211 99.6855C87.2383 99.627 87.3164 99.4512 87.3555 99.1582C87.3945 98.8652 87.4434 98.2207 87.502 97.2246C87.502 97.0293 87.502 96.7949 87.502 96.5215C87.5215 96.209 87.5117 96.0332 87.4727 95.9941C87.4531 95.9551 87.3555 95.9648 87.1797 96.0234C87.1406 96.043 87.1016 96.0625 87.0625 96.082C86.9844 96.1016 86.8477 96.1699 86.6523 96.2871C86.4766 96.4043 86.3105 96.502 86.1543 96.5801C85.998 96.6582 85.832 96.7168 85.6562 96.7559C85.5 96.7949 85.373 96.7656 85.2754 96.668C85.1973 96.5508 85.1582 96.3555 85.1582 96.082C85.1191 95.7891 85.1484 95.584 85.2461 95.4668C85.3438 95.3496 85.5195 95.2715 85.7734 95.2324C85.793 95.2129 85.8711 95.1836 86.0078 95.1445C86.1445 95.1055 86.2422 95.0762 86.3008 95.0566C86.3789 95.0371 86.4863 95.0078 86.623 94.9688C86.7598 94.9102 86.8672 94.8613 86.9453 94.8223C87.0234 94.7637 87.1113 94.6953 87.209 94.6172C87.3066 94.5391 87.3848 94.4609 87.4434 94.3828C87.502 94.3047 87.541 94.2168 87.5605 94.1191C87.5996 94.002 87.6191 93.875 87.6191 93.7383C87.6582 93.5234 87.707 93.3086 87.7656 93.0938C87.8242 92.8789 87.9023 92.6445 88 92.3906C88.0977 92.1367 88.166 91.9512 88.2051 91.834C88.2832 91.7559 88.4199 91.7168 88.6152 91.7168C88.8105 91.7168 88.9668 91.7559 89.084 91.834C89.1816 91.9121 89.2305 92 89.2305 92.0977C89.2305 92.1953 89.1816 92.4492 89.084 92.8594C89.0449 93.1328 89.084 93.2695 89.2012 93.2695C89.377 93.25 89.5723 93.0547 89.7871 92.6836C89.8457 92.6055 89.875 92.5469 89.875 92.5078C89.8945 92.3711 89.9727 92.2637 90.1094 92.1855C90.2461 92.1074 90.3926 92.1074 90.5488 92.1855C90.7637 92.2051 90.9004 92.2637 90.959 92.3613C91.0176 92.459 91.0176 92.5664 90.959 92.6836C90.9004 92.8008 90.8223 92.918 90.7246 93.0352C90.6465 93.1523 90.5488 93.2793 90.4316 93.416C90.334 93.5332 90.2754 93.6113 90.2559 93.6504C90.1973 93.7285 89.9531 93.9531 89.5234 94.3242C89.0938 94.6758 88.8398 94.9688 88.7617 95.2031C88.7227 95.3203 88.6934 95.6914 88.6738 96.3164C88.6543 96.9219 88.6348 97.5664 88.6152 98.25C88.6152 98.9336 88.6152 99.3438 88.6152 99.4805L88.5859 100.242C89.4062 100.223 90.7832 100.066 92.7168 99.7734C94.6699 99.4805 95.9785 99.3047 96.6426 99.2461C97.209 99.1875 97.5508 99.2559 97.668 99.4512C97.7656 99.7637 97.7168 100.096 97.5215 100.447C97.3457 100.779 97.0332 100.857 96.584 100.682C95.7637 100.604 94.6602 100.701 93.2734 100.975C91.9062 101.229 90.9004 101.365 90.2559 101.385C89.5527 101.443 88.957 101.551 88.4688 101.707ZM119.201 88.084C119.123 88.123 119.055 88.084 118.996 87.9668C118.938 87.8496 118.869 87.7227 118.791 87.5859C118.732 87.4492 118.654 87.3906 118.557 87.4102C118.479 87.4102 118.42 87.4297 118.381 87.4688C118.361 87.5078 118.342 87.6055 118.322 87.7617C118.166 88.7969 117.883 89.3828 117.473 89.5195C117.121 89.5195 116.906 89.4121 116.828 89.1973C116.75 88.9824 116.779 88.6504 116.916 88.2012C117.17 87.0293 117.297 85.3594 117.297 83.1914C117.316 82.8203 117.355 82.5859 117.414 82.4883C117.473 82.3711 117.609 82.3125 117.824 82.3125C118 82.3125 118.166 82.3809 118.322 82.5176C118.479 82.6543 118.557 82.8105 118.557 82.9863C118.498 83.2402 118.596 83.2988 118.85 83.1621C119.123 83.0059 119.26 82.9277 119.26 82.9277C119.299 82.9277 119.348 82.752 119.406 82.4004C119.523 81.7363 119.631 81.3066 119.729 81.1113C119.826 80.916 119.973 80.8184 120.168 80.8184C120.637 80.877 120.812 81.1699 120.695 81.6973L120.666 82.166C120.92 82.1074 121.105 82.0586 121.223 82.0195C121.34 81.9805 121.447 81.9121 121.545 81.8145C121.662 81.7168 121.721 81.5703 121.721 81.375C121.74 81.1602 121.672 80.9844 121.516 80.8477C121.203 80.5938 121.193 80.3398 121.486 80.0859C121.799 79.832 122.092 79.8125 122.365 80.0273C122.58 80.2031 122.688 80.6523 122.688 81.375V81.7559L123.186 81.9902C123.713 82.166 124.094 82.498 124.328 82.9863C124.582 83.4551 124.689 84.0117 124.65 84.6562C124.553 85.5938 124.27 86.3262 123.801 86.8535C123.645 87.0098 123.537 87.1562 123.479 87.293C123.322 87.5664 122.189 88.2402 120.08 89.3145C119.729 89.4902 119.455 89.6367 119.26 89.7539C119.025 89.9297 118.811 89.9883 118.615 89.9297C118.42 89.8516 118.322 89.6855 118.322 89.4316C118.303 89.2949 118.4 89.0898 118.615 88.8164C118.85 88.543 119.035 88.3672 119.172 88.2891C119.348 88.1719 119.357 88.1035 119.201 88.084ZM122.658 83.748C122.678 83.6309 122.717 83.5137 122.775 83.3965C122.834 83.2598 122.854 83.1719 122.834 83.1328C122.834 83.0938 122.775 83.0742 122.658 83.0742C122.561 83.0742 122.492 83.1133 122.453 83.1914C122.434 83.2695 122.395 83.5332 122.336 83.9824C122.297 84.2363 122.316 84.3438 122.395 84.3047C122.453 84.2852 122.541 84.0996 122.658 83.748ZM121.398 83.25C121.379 83.2109 121.34 83.1914 121.281 83.1914C121.242 83.1719 121.184 83.1719 121.105 83.1914C121.047 83.2109 120.988 83.2402 120.93 83.2793C120.871 83.2988 120.803 83.3281 120.725 83.3672C120.666 83.3867 120.627 83.4062 120.607 83.4258C120.588 83.4453 120.539 83.7383 120.461 84.3047C120.402 84.8711 120.383 85.1836 120.402 85.2422C120.5 85.457 120.676 85.4082 120.93 85.0957C121.086 84.9199 121.184 84.7246 121.223 84.5098C121.379 83.7676 121.438 83.3477 121.398 83.25ZM119.26 85.916C119.318 85.9551 119.367 85.6816 119.406 85.0957C119.426 84.5488 119.406 84.2949 119.348 84.334C119.113 84.2754 118.889 84.5098 118.674 85.0371C118.459 85.5449 118.41 85.916 118.527 86.1504C118.547 86.1699 118.664 86.1504 118.879 86.0918C119.094 86.0332 119.221 85.9746 119.26 85.916ZM123.596 85.0957C123.635 84.8613 123.635 84.7441 123.596 84.7441C123.576 84.7246 123.508 84.7832 123.391 84.9199C123.254 85.0762 122.98 85.2812 122.57 85.5352C121.965 85.9258 121.623 86.3457 121.545 86.7949C121.525 86.9316 121.516 87.0098 121.516 87.0293C121.535 87.0488 121.594 87.0488 121.691 87.0293C122.219 86.8535 122.648 86.5996 122.98 86.2676C123.332 85.9355 123.537 85.5449 123.596 85.0957ZM120.52 86.8242C120.48 86.7266 120.393 86.7461 120.256 86.8828C119.982 87.1953 119.895 87.4297 119.992 87.5859C119.992 87.6055 120.012 87.6152 120.051 87.6152C120.09 87.6152 120.178 87.5078 120.314 87.293C120.451 87.0586 120.52 86.9023 120.52 86.8242ZM106.457 82.459C106.281 82.127 106.262 81.8145 106.398 81.5215C106.555 81.209 106.818 81.0527 107.189 81.0527C107.404 81.0527 107.551 81.1211 107.629 81.2578C107.707 81.375 107.736 81.5898 107.717 81.9023C107.697 82.2539 107.727 82.4492 107.805 82.4883C107.902 82.5078 108.166 82.4102 108.596 82.1953C108.869 82.0195 109.289 81.873 109.855 81.7559C110.441 81.6191 110.822 81.5117 110.998 81.4336C111.35 81.2383 111.73 81.2969 112.141 81.6094C112.336 81.8242 112.473 82.1855 112.551 82.6934C112.629 83.1816 112.629 83.6797 112.551 84.1875C112.492 84.6758 112.424 85.125 112.346 85.5352C112.268 85.9453 112.199 86.2578 112.141 86.4727C112.082 86.668 111.984 86.9902 111.848 87.4395C111.73 87.8691 111.643 88.2012 111.584 88.4355C112.248 88.2598 112.766 88.3184 113.137 88.6113C113.352 88.8848 113.459 89.1582 113.459 89.4316C113.459 89.6855 113.41 89.9004 113.312 90.0762C113.234 90.2324 113.059 90.5352 112.785 90.9844C112.395 91.5703 111.975 91.9316 111.525 92.0684C111.311 92.127 111.174 92.1074 111.115 92.0098C111.018 91.8926 111.027 91.7363 111.145 91.541C111.262 91.3457 111.428 91.1406 111.643 90.9258C111.857 90.6914 111.984 90.5352 112.023 90.457C112.238 90.1445 112.346 89.9883 112.346 89.9883C112.404 89.9102 112.414 89.832 112.375 89.7539C112.336 89.6758 112.268 89.6367 112.17 89.6367C111.525 89.8906 110.119 90.5156 107.951 91.5117C107.209 91.8828 106.613 92.2246 106.164 92.5371C105.715 92.8301 105.158 93.2891 104.494 93.9141C103.928 94.4219 103.557 94.6855 103.381 94.7051C102.814 94.5879 102.756 94.207 103.205 93.5625C103.322 93.3867 103.469 92.957 103.645 92.2734C103.84 91.5898 103.986 91.1406 104.084 90.9258C104.221 90.457 104.318 90.1738 104.377 90.0762C104.436 89.959 104.543 89.832 104.699 89.6953C105.227 89.3242 105.539 89.3828 105.637 89.8711C105.695 90.0273 105.578 90.3105 105.285 90.7207C105.188 90.8379 105.061 91.0918 104.904 91.4824C104.748 91.8535 104.67 92.0977 104.67 92.2148C104.67 92.3906 104.836 92.3223 105.168 92.0098C105.422 91.7168 105.852 91.3945 106.457 91.043C107.082 90.6914 107.922 90.2812 108.977 89.8125C110.031 89.3438 110.627 89.0703 110.764 88.9922L111.115 88.7871L110.822 88.6699C110.627 88.5918 110.52 88.4941 110.5 88.377C110.48 88.2402 110.529 88.0449 110.646 87.791C110.998 86.9121 111.262 85.8867 111.438 84.7148C111.34 84.5586 111.203 84.5977 111.027 84.832C110.988 84.8516 110.91 85.0664 110.793 85.4766C110.676 85.8867 110.539 86.3555 110.383 86.8828C110.246 87.3906 110.139 87.7227 110.061 87.8789C110.002 88.1133 109.943 88.2695 109.885 88.3477C109.846 88.4062 109.748 88.4551 109.592 88.4941C109.338 88.5527 109.162 88.4941 109.064 88.3184C108.967 88.1426 108.986 87.918 109.123 87.6445C109.221 87.4492 109.328 87.0977 109.445 86.5898C109.562 86.082 109.602 85.7891 109.562 85.7109C109.523 85.6719 109.445 85.6719 109.328 85.7109C109.211 85.7305 109.084 85.7012 108.947 85.623C108.811 85.5449 108.742 85.457 108.742 85.3594C108.762 85.1055 108.879 84.8906 109.094 84.7148C109.309 84.5195 109.582 84.3438 109.914 84.1875C110.246 84.0117 110.471 83.8652 110.588 83.748C110.861 83.5332 111.076 83.4062 111.232 83.3672C111.486 83.3281 111.564 83.1914 111.467 82.957C111.389 82.7422 111.252 82.6543 111.057 82.6934C110.354 82.7715 109.572 83.0547 108.713 83.543C108.01 83.8164 107.697 84.2949 107.775 84.9785C107.775 85.3301 107.697 85.8867 107.541 86.6484C107.404 87.3906 107.355 87.9766 107.395 88.4062C107.375 88.7969 107.355 89.0605 107.336 89.1973C107.316 89.334 107.248 89.5 107.131 89.6953C106.857 90.2031 106.564 90.3887 106.252 90.252C106.076 90.1738 105.988 89.9883 105.988 89.6953C105.988 89.4023 106.076 88.8652 106.252 88.084C106.408 87.3613 106.506 86.7949 106.545 86.3848C106.584 85.9746 106.594 85.3496 106.574 84.5098C106.574 83.377 106.535 82.6934 106.457 82.459ZM123.303 89.168C123.635 89.2852 123.752 89.5098 123.654 89.8418C123.576 90.1738 123.391 90.418 123.098 90.5742C123.059 90.5938 122.6 90.9062 121.721 91.5117C120.842 92.0977 120.139 92.459 119.611 92.5957C119.455 92.5957 119.318 92.5371 119.201 92.4199C119.084 92.3027 119.025 92.1562 119.025 91.9805C119.025 91.7461 119.074 91.5801 119.172 91.4824C119.289 91.3848 119.475 91.3066 119.729 91.248C119.963 91.2285 120.295 91.082 120.725 90.8086C121.154 90.5156 121.369 90.3691 121.369 90.3691C121.428 90.3496 121.74 90.1543 122.307 89.7832C122.893 89.3926 123.225 89.1875 123.303 89.168ZM120.344 98.2207C120.402 98.0645 120.305 97.8984 120.051 97.7227C119.816 97.5469 119.709 97.4004 119.729 97.2832C119.729 97.127 119.67 96.9805 119.553 96.8438C119.475 96.7266 119.426 96.5801 119.406 96.4043C119.406 96.209 119.416 96.0332 119.436 95.877C119.475 95.7012 119.523 95.5059 119.582 95.291C119.641 95.0566 119.67 94.8809 119.67 94.7637C119.709 94.373 119.787 93.9824 119.904 93.5918C120.041 93.2012 120.178 92.9375 120.314 92.8008C120.666 92.4688 120.91 92.3516 121.047 92.4492C121.125 92.4883 121.174 92.5371 121.193 92.5957C121.213 92.6543 121.203 92.8008 121.164 93.0352C121.145 93.3477 121.154 93.5137 121.193 93.5332C121.232 93.5332 121.311 93.4746 121.428 93.3574C121.584 93.2012 121.711 93.084 121.809 93.0059C122.16 92.6738 122.473 92.4395 122.746 92.3027C122.98 92.2051 123.146 92.1562 123.244 92.1562C123.342 92.1367 123.449 92.1758 123.566 92.2734C123.879 92.5078 123.898 92.9668 123.625 93.6504C123.508 93.9824 123.439 94.2168 123.42 94.3535C123.42 94.4707 123.449 94.6465 123.508 94.8809C123.508 95.0371 123.596 95.1348 123.771 95.1738C123.986 95.2324 124.123 95.3496 124.182 95.5254C124.26 95.6816 124.289 95.9941 124.27 96.4629C124.309 97.2832 123.996 98.1133 123.332 98.9531C123.371 98.9922 123.566 98.9922 123.918 98.9531C124.27 98.8945 124.65 98.8262 125.061 98.748C125.471 98.6699 125.744 98.6309 125.881 98.6309C126.721 98.5918 127.883 98.4258 129.367 98.1328C130.871 97.8203 132.014 97.6152 132.795 97.5176C133.186 97.4785 133.439 97.5859 133.557 97.8398C133.674 98.0938 133.635 98.3574 133.439 98.6309C133.361 98.748 133.283 98.8164 133.205 98.8359C133.146 98.8359 132.951 98.8262 132.619 98.8066C132.033 98.748 131.057 98.8848 129.689 99.2168C129.279 99.3145 127.824 99.5488 125.324 99.9199C122.824 100.291 120.764 100.75 119.143 101.297C118.42 101.531 117.971 101.648 117.795 101.648C117.658 101.648 117.531 101.58 117.414 101.443C117.297 101.307 117.238 101.16 117.238 101.004C117.199 100.77 117.248 100.594 117.385 100.477C117.521 100.359 117.736 100.271 118.029 100.213C118.342 100.135 118.537 100.076 118.615 100.037C118.693 100.018 118.84 99.9785 119.055 99.9199C119.27 99.8613 119.455 99.8027 119.611 99.7441C119.787 99.6855 119.914 99.6172 119.992 99.5391C120.07 99.4609 120.148 99.2754 120.227 98.9824C120.305 98.6699 120.344 98.416 120.344 98.2207ZM122.131 94.4707C122.111 94.334 122.043 94.2559 121.926 94.2363C121.809 94.2168 121.662 94.3047 121.486 94.5C121.311 94.6758 121.213 94.8418 121.193 94.998C121.115 95.3496 121.115 95.5352 121.193 95.5547C121.291 95.5742 121.477 95.4277 121.75 95.1152C122.023 94.8418 122.15 94.627 122.131 94.4707ZM123.01 95.7012C122.951 95.7012 122.717 95.9258 122.307 96.375C121.916 96.8047 121.691 97.0977 121.633 97.2539C121.555 97.4102 121.477 97.7422 121.398 98.25C121.32 98.7383 121.301 99.0117 121.34 99.0703C121.652 99.0898 122.287 98.4941 123.244 97.2832C123.322 97.127 123.332 96.8633 123.273 96.4922C123.215 96.1016 123.127 95.8379 123.01 95.7012ZM108.42 102.41C108.518 102.566 108.625 102.703 108.742 102.82C108.859 102.957 108.977 103.064 109.094 103.143C109.23 103.221 109.348 103.221 109.445 103.143C109.562 103.064 109.65 102.898 109.709 102.645C109.787 102.371 109.846 101.873 109.885 101.15C109.924 100.408 109.904 99.9297 109.826 99.7148C109.729 99.7734 109.514 99.9297 109.182 100.184C108.85 100.438 108.547 100.652 108.273 100.828C108 101.004 107.824 101.062 107.746 101.004C107.59 101.004 107.482 101.053 107.424 101.15C107.365 101.248 107.297 101.473 107.219 101.824C107.082 102.469 106.916 102.898 106.721 103.113C106.564 103.348 106.369 103.406 106.135 103.289C105.9 103.172 105.812 102.977 105.871 102.703C106.027 100.633 106.34 98.9727 106.809 97.7227C107.121 97.0781 107.346 96.1504 107.482 94.9395C107.521 94.627 107.59 94.2754 107.688 93.8848C107.805 93.4941 107.902 93.2598 107.98 93.1816C108.137 93.0449 108.342 93.0254 108.596 93.123C108.85 93.2207 108.977 93.3672 108.977 93.5625L109.064 93.8555L109.504 93.7969C109.797 93.7578 110.031 93.8066 110.207 93.9434C110.656 94.334 110.93 95.1055 111.027 96.2578C111.008 96.4531 111.057 96.6582 111.174 96.873C111.291 97.0879 111.369 97.2441 111.408 97.3418C111.467 97.4395 111.418 97.625 111.262 97.8984C111.164 97.9961 111.105 98.123 111.086 98.2793C111.066 98.4355 111.037 98.875 110.998 99.5977C110.9 101.316 110.783 102.439 110.646 102.967C110.529 103.494 110.305 103.855 109.973 104.051C109.719 104.168 109.494 104.197 109.299 104.139C108.889 104.021 108.518 103.719 108.186 103.23C107.854 102.742 107.785 102.4 107.98 102.205C108.117 102.049 108.264 102.117 108.42 102.41ZM109.738 95.291C109.602 94.9785 109.367 94.998 109.035 95.3496C108.879 95.5059 108.742 95.7109 108.625 95.9648C108.469 96.3359 108.41 96.5508 108.449 96.6094C108.488 96.668 108.674 96.6094 109.006 96.4336C109.416 96.2188 109.67 96.043 109.768 95.9062C109.865 95.75 109.855 95.5449 109.738 95.291ZM108.537 99.2461C108.596 99.207 108.664 99.1582 108.742 99.0996C109.074 98.8066 109.309 98.5918 109.445 98.4551C109.582 98.3184 109.719 98.1719 109.855 98.0156C109.992 97.8398 110.051 97.7031 110.031 97.6055C110.012 97.4883 109.953 97.3809 109.855 97.2832C109.816 97.2832 109.514 97.4297 108.947 97.7227C108.771 97.8008 108.635 97.8691 108.537 97.9277C108.439 97.9863 108.352 98.0449 108.273 98.1035C108.195 98.1426 108.127 98.2012 108.068 98.2793C108.029 98.3379 107.99 98.3867 107.951 98.4258C107.932 98.4453 107.912 98.5137 107.893 98.6309C107.873 98.7285 107.854 98.8066 107.834 98.8652C107.834 98.9043 107.824 99.0117 107.805 99.1875C107.805 99.3633 107.805 99.5 107.805 99.5977C107.805 99.7734 108.049 99.6562 108.537 99.2461Z" fill="#D9D9D9"/>
</svg>
